 <!DOCTYPE svg PUBLIC "-//W3C//DTD SVG 1.1//EN" "http://www.w3.org/Graphics/SVG/1.1/DTD/svg11.dtd">
<svg id="ad57aded-9595-49d4-a469-0d025d5a942b" data-name="Layer 1" xmlns="http://www.w3.org/2000/svg" width="865.76" height="682.89" viewBox="0 0 865.76 682.89">
<defs>
<style xmlns="http://www.w3.org/1999/xhtml">*, ::after, ::before { box-sizing: border-box; }
img, svg { vertical-align: middle; }
</style>
<style xmlns="http://www.w3.org/1999/xhtml">*, body, html { -webkit-font-smoothing: antialiased; }
img, svg { max-width: 100%; }
</style>
</defs>
<g id="a75c0f30-6cc2-463b-b167-a87ab62cce07" data-name="freepik--background-complete--inject-54">
<rect x="23.38" y="565.76" width="819" height="0.41" fill="#ebebeb"/>
<rect x="706.07" y="592.12" width="54.25" height="0.41" fill="#ebebeb"/>
<rect x="551.69" y="596.58" width="14.23" height="0.41" fill="#ebebeb"/>
<rect x="673" y="576.92" width="31.43" height="0.41" fill="#ebebeb"/>
<rect x="109.31" y="579.67" width="70.75" height="0.41" fill="#ebebeb"/>
<rect x="194.65" y="579.67" width="10.37" height="0.41" fill="#ebebeb"/>
<rect x="238.73" y="586.58" width="153.45" height="0.41" fill="#ebebeb"/>
<path d="M411.59,492.71H95.31A9.35,9.35,0,0,1,86,483.36V38.75a9.36,9.36,0,0,1,9.34-9.27H411.59a9.36,9.36,0,0,1,9.35,9.36h0V483.36A9.35,9.35,0,0,1,411.59,492.71ZM95.31,29.81a8.94,8.94,0,0,0-8.93,8.94V483.36a8.94,8.94,0,0,0,8.93,8.94H411.59a9,9,0,0,0,8.94-8.94V38.75a9,9,0,0,0-8.94-8.94Z" fill="#ebebeb"/>
<path d="M765.9,492.71H449.61a9.37,9.37,0,0,1-9.36-9.35V38.75a9.38,9.38,0,0,1,9.36-9.27H765.9a9.35,9.35,0,0,1,9.32,9.27V483.36A9.35,9.35,0,0,1,765.9,492.71ZM449.61,29.81a9,9,0,0,0-8.95,8.94V483.36a9,9,0,0,0,8.95,8.94H765.9a9,9,0,0,0,9-8.94V38.75a9,9,0,0,0-9-8.94Z" fill="#ebebeb"/>
<circle cx="346.49" cy="128.06" r="43.06" fill="#fafafa"/>
<path d="M145.27,311.07a14.21,14.21,0,0,1-.45-3c-.37-6.16-6.25-5.19-11.27-6-3.91-.65,6.46-10.55-1.44-13.72a6.89,6.89,0,0,1-3.81-2.66,4.49,4.49,0,0,1,1.63-5.47,10.46,10.46,0,0,1,6-1.5c1.29-1.64.24-3.94-1-5.53s-2.78-3.42-2.31-5.38c.72-3,4.91-3.08,7.88-2.51,1.11-1.8,1.1-4.05,1.64-6.09s2.18-4.18,4.27-3.93,3.18,2.47,5.11,2.93c2.26.52,4.21-1.46,6-2.95s4.91-2.43,6.07-.46c.72,1.18.3,2.82,1.05,4,1.31,2,4.42.75,6.36-.67s4.91-2.72,6.35-.74a8,8,0,0,1,.75,2.07c.92,2.63,3.77,3.94,6,5.63s4,5.06,2.1,7.13c-.92,1-2.56,1.42-3,2.71-.58,1.64,1.08,3.08,2.39,4.2,2.18,1.85,2.57,7.4-.31,8.93-1.22.62-3,.81-3.28,2.16s.95,2.11,1.75,3a5.73,5.73,0,0,1-1,8,6.32,6.32,0,0,1-.74.49c-.7.33-1.54.59-1.8,1.32a2.71,2.71,0,0,0,.16,1.64,8.54,8.54,0,0,1,.28,3.1,1.46,1.46,0,0,1-.38,1,1.54,1.54,0,0,1-.91.26c-4.16.18-6.18-1.3-8.72,2.32a2.83,2.83,0,0,1-.87.92,2.51,2.51,0,0,1-1.14.3c-2.87.22-4.74-1.56-7.36-1.89-3.62-.46-4.39,1.41-7.58,2.92C148.66,316,146.23,314.5,145.27,311.07Z" fill="#ebebeb"/>
<path d="M193.23,305.88a13.51,13.51,0,0,1-.46-3c-.36-6.17-6.26-5.19-11.27-6-3.9-.66,6.45-10.55-1.44-13.75a6.9,6.9,0,0,1-3.8-2.65,4.49,4.49,0,0,1,1.63-5.47,10.6,10.6,0,0,1,6-1.47c1.27-1.56.23-3.92-1-5.52s-2.77-3.41-2.29-5.38c.7-3,4.91-3.09,7.88-2.5,1.11-1.81,1.08-4,1.63-6.1s2.17-4.19,4.26-3.93,3.28,2.48,5.13,2.93c2.24.53,4.19-1.47,6-3s4.92-2.43,6.08-.46c.72,1.18.29,2.82,1.05,4,1.31,2,4.42.77,6.34-.65s5-2.72,6.37-.74a8.48,8.48,0,0,1,.75,2.06c.9,2.64,3.75,4,6,5.64s4,5,2.1,7.11c-.94,1-2.56,1.44-3,2.73-.57,1.64,1.08,3.06,2.39,4.18,2.18,1.87,2.58,7.4-.31,8.93-1.21.63-3,.83-3.27,2.17s.93,2.12,1.75,3a5.74,5.74,0,0,1-1,8.05,7.43,7.43,0,0,1-.75.49c-.69.33-1.54.6-1.78,1.33a2.61,2.61,0,0,0,.16,1.63,8.66,8.66,0,0,1,.28,3.08,1.12,1.12,0,0,1-1.3,1.23c-4.16.2-6.17-1.28-8.71,2.34a2.94,2.94,0,0,1-.87.92,2.71,2.71,0,0,1-1.15.28c-2.86.24-4.73-1.54-7.35-1.88-3.62-.46-4.39,1.4-7.6,2.91C196.6,310.78,194.16,309.32,193.23,305.88Z" fill="#ebebeb"/>
<path d="M197.85,275.35a13.18,13.18,0,0,1-.45-3c-.37-6.16-6.25-5.2-11.27-6-3.91-.66,6.44-10.53-1.44-13.73a6.87,6.87,0,0,1-3.81-2.65,4.48,4.48,0,0,1,1.63-5.47,10.47,10.47,0,0,1,6-1.51c1.28-1.64.24-3.91-1-5.52s-2.77-3.42-2.29-5.39c.72-3,4.91-3.08,7.88-2.5,1.11-1.81,1.08-4,1.64-6.1s2.16-4.18,4.26-3.93,3.27,2.47,5.12,2.93c2.26.53,4.21-1.46,6-2.95s4.92-2.42,6.08-.45c.72,1.17.3,2.81,1.05,4,1.31,2,4.42.75,6.36-.68s5-2.71,6.35-.73a8,8,0,0,1,.75,2.06c.92,2.64,3.77,4,6,5.64s4,5.06,2.1,7.12c-.92,1-2.56,1.43-3,2.72-.58,1.64,1.08,3.08,2.39,4.19,2.18,1.85,2.57,7.41-.31,8.93-1.22.64-3,.84-3.28,2.16s.95,2.13,1.75,3a5.72,5.72,0,0,1-1,8,4.52,4.52,0,0,1-.74.49c-.7.33-1.64.61-1.8,1.33a2.72,2.72,0,0,0,.16,1.64,8.47,8.47,0,0,1,.28,3.09,1.44,1.44,0,0,1-.38,1,1.41,1.41,0,0,1-.91.26c-4.16.18-6.18-1.29-8.72,2.33a2.94,2.94,0,0,1-.87.92,2.64,2.64,0,0,1-1.14.29c-2.87.23-4.74-1.56-7.36-1.88-3.62-.46-4.39,1.41-7.58,2.91C201.22,280.23,198.8,278.77,197.85,275.35Z" fill="#ebebeb"/>
<path d="M229.44,290.56a14.91,14.91,0,0,1-.46-3c-.36-6.17-6.25-5.19-11.27-6-3.91-.66,6.46-10.55-1.44-13.73a7,7,0,0,1-3.8-2.67,4.45,4.45,0,0,1,1.64-5.47,10.55,10.55,0,0,1,6-1.49c1.29-1.64.25-3.93-1-5.52s-2.77-3.43-2.29-5.39c.7-3,4.91-3.08,7.88-2.51,1.09-1.8,1.08-4,1.63-6.09s2.17-4.19,4.26-3.93,3.18,2.47,5.13,2.93c2.24.52,4.19-1.46,6-3s4.92-2.42,6.06-.44c.74,1.17.3,2.82,1.05,4,1.31,2,4.42.77,6.36-.66s5-2.72,6.37-.74a8,8,0,0,1,.74,2.07c.91,2.64,3.76,4,6,5.63s4,5.06,2.1,7.11c-.94,1-2.56,1.44-3,2.74-.59,1.64,1.08,3.08,2.39,4.19,2.18,1.85,2.58,7.4-.31,8.91-1.21.64-3,.84-3.27,2.18s.95,2.11,1.75,3.05a5.71,5.71,0,0,1-1,8,6,6,0,0,1-.75.49c-.69.35-1.54.61-1.8,1.33a2.72,2.72,0,0,0,.16,1.64,8.21,8.21,0,0,1,.28,3.08,1.37,1.37,0,0,1-.38,1,1.43,1.43,0,0,1-.9.25c-4.18.19-6.18-1.28-8.71,2.34a3.31,3.31,0,0,1-.87.92,2.72,2.72,0,0,1-1.15.29c-2.87.23-4.73-1.64-7.35-1.88-3.64-.48-4.41,1.41-7.6,2.9C232.82,295.45,230.38,294,229.44,290.56Z" fill="#ebebeb"/>
<path d="M261.37,283.54a14.43,14.43,0,0,1-.46-3c-.36-6.18-6.26-5.2-11.27-6-3.92-.66,6.45-10.55-1.44-13.73a7,7,0,0,1-3.8-2.65,4.5,4.5,0,0,1,1.64-5.49,10.58,10.58,0,0,1,6-1.49c1.28-1.64.23-3.93-1-5.52s-2.76-3.42-2.29-5.39c.71-3,4.92-3.08,7.88-2.5,1.1-1.81,1.08-4,1.64-6.1s2.16-4.19,4.26-3.93,3.19,2.47,5.12,2.93c2.25.53,4.2-1.46,6-2.95s4.91-2.44,6.07-.45c.72,1.16.28,2.81,1,4,1.31,2,4.41.77,6.34-.66s5-2.71,6.37-.73a8.78,8.78,0,0,1,.76,2.06c.9,2.64,3.75,4,6,5.64s4,5.06,2.1,7.12c-.93,1-2.55,1.43-3,2.72-.58,1.64,1.08,3.08,2.39,4.19,2.18,1.85,2.57,7.41-.31,8.91-1.21.64-3,.84-3.28,2.18s.94,2.12,1.74,3.05a5.71,5.71,0,0,1-1,8,6.11,6.11,0,0,1-.75.5c-.69.34-1.54.6-1.81,1.34a2.8,2.8,0,0,0,.18,1.64,8.47,8.47,0,0,1,.28,3.09,1.56,1.56,0,0,1-.37,1,1.44,1.44,0,0,1-.92.25c-4.16.19-6.18-1.28-8.72,2.34a3.14,3.14,0,0,1-.86.92,2.72,2.72,0,0,1-1.15.29c-2.87.23-4.73-1.56-7.36-1.88-3.63-.48-4.4,1.41-7.6,2.9C264.74,288.42,262.3,287,261.37,283.54Z" fill="#ebebeb"/>
<path d="M261.78,317.77a11.61,11.61,0,0,1-.35-2.34c-.29-4.92-4.91-4.1-8.88-4.75-3.07-.53,5.08-8.31-1.13-10.81a5.59,5.59,0,0,1-3-2.1,3.57,3.57,0,0,1,1.36-4.31,8.4,8.4,0,0,1,4.72-1.18c1-1.22.19-3.09-.79-4.35s-2.18-2.69-1.82-4.25c.58-2.34,3.84-2.42,6.21-2a17.05,17.05,0,0,0,1.28-4.8c.42-1.64,1.64-3.28,3.36-3.1s2.5,1.95,4,2.31,3.27-1.14,4.7-2.32,3.81-1.9,4.78-.36c.57.93.23,2.22.82,3.13,1,1.63,3.49.6,4.91-.53s3.95-2.13,5-.57a5.94,5.94,0,0,1,.58,1.64c.73,2.08,3,3.11,4.72,4.44s3.13,4,1.64,5.6c-.74.8-2,1.13-2.37,2.14-.46,1.28.85,2.43,1.88,3.28,1.64,1.46,2,5.83-.25,7-.95.49-2.36.65-2.58,1.63s.75,1.64,1.37,2.4a4.49,4.49,0,0,1-.75,6.3,5.11,5.11,0,0,1-.62.41c-.55.26-1.22.48-1.41,1a2.08,2.08,0,0,0,.11,1.28,6.38,6.38,0,0,1,.23,2.42,1.13,1.13,0,0,1-.29.77,1.25,1.25,0,0,1-.72.2c-3.28.15-4.92-1-6.87,1.83a2.43,2.43,0,0,1-.69.74,2,2,0,0,1-.9.21c-2.26.2-3.73-1.21-5.78-1.47-2.87-.36-3.47,1.11-6,2.29C264.45,321.52,262.53,320.38,261.78,317.77Z" fill="#ebebeb"/>
<path d="M279.66,305.88a15.54,15.54,0,0,1-.44-3c-.38-6.17-6.26-5.19-11.27-6-3.91-.66,6.46-10.55-1.44-13.75a6.88,6.88,0,0,1-3.82-2.65,4.51,4.51,0,0,1,1.72-5.47,10.73,10.73,0,0,1,6-1.51c1.29-1.55.24-3.91-1-5.52s-2.77-3.4-2.31-5.37c.72-3,4.91-3.1,7.88-2.51,1.11-1.8,1.1-4,1.64-6.09s2.16-4.19,4.26-3.93,3.17,2.47,5.12,2.93c2.25.53,4.2-1.47,6-3s4.92-2.43,6.07-.46c.73,1.18.29,2.82,1,4,1.31,2,4.43.77,6.36-.66s5-2.72,6.35-.73a8,8,0,0,1,.76,2.06c.92,2.64,3.77,3.95,6,5.63s4,5.05,2.09,7.11c-.91,1-2.55,1.44-3,2.74-.57,1.64,1.08,3.06,2.39,4.18,2.18,1.86,2.59,7.4-.29,8.92-1.22.64-3,.84-3.28,2.18s.95,2.11,1.75,3a5.73,5.73,0,0,1-1,8,6.32,6.32,0,0,1-.74.49c-.69.32-1.54.6-1.8,1.32a2.79,2.79,0,0,0,.16,1.64,8.44,8.44,0,0,1,.28,3.08,1.35,1.35,0,0,1-.38,1,1.47,1.47,0,0,1-.91.26c-4.16.19-6.16-1.28-8.72,2.34a2.83,2.83,0,0,1-.87.92,2.78,2.78,0,0,1-1.14.28c-2.85.24-4.74-1.54-7.34-1.89-3.64-.46-4.41,1.41-7.6,2.92C283.05,310.78,280.55,309.32,279.66,305.88Z" fill="#ebebeb"/>
<path d="M229.44,253a14.13,14.13,0,0,1-.46-3c-.36-6.17-6.25-5.19-11.27-6-3.91-.66,6.46-10.55-1.44-13.75a6.88,6.88,0,0,1-3.8-2.65,4.45,4.45,0,0,1,1.64-5.47,10.64,10.64,0,0,1,6-1.51c1.29-1.55.25-3.91-1-5.52s-2.77-3.41-2.29-5.39c.7-3,4.91-3.08,7.88-2.5,1.09-1.79,1.08-4.05,1.63-6.08s2.17-4.19,4.26-3.93,3.18,2.46,5.13,2.91c2.24.54,4.19-1.45,6-2.94s4.92-2.43,6.06-.46c.74,1.18.3,2.81,1.05,4,1.31,2,4.42.75,6.36-.67s5-2.71,6.37-.74a8.31,8.31,0,0,1,.74,2.06c.91,2.64,3.76,4,6,5.65s4,5,2.1,7.11c-.94,1-2.56,1.43-3,2.74-.59,1.64,1.08,3.06,2.39,4.17,2.18,1.86,2.58,7.41-.31,8.93-1.21.64-3,.84-3.27,2.16s.95,2.13,1.75,3.05a5.74,5.74,0,0,1-1,8,5.21,5.21,0,0,1-.74.48c-.69.33-1.54.61-1.8,1.33a2.72,2.72,0,0,0,.16,1.64,8.29,8.29,0,0,1,.28,3.1,1.34,1.34,0,0,1-.38,1,1.38,1.38,0,0,1-.9.26c-4.18.18-6.18-1.29-8.71,2.35a3.15,3.15,0,0,1-.87.91,2.71,2.71,0,0,1-1.15.28c-2.87.25-4.73-1.54-7.35-1.88-3.64-.46-4.41,1.41-7.6,2.91C232.82,257.87,230.38,256.41,229.44,253Z" fill="#ebebeb"/>
<path d="M188.43,255.09a14.23,14.23,0,0,1-.46-3c-.36-6.18-6.26-5.19-11.27-6-3.92-.65,6.45-10.55-1.44-13.74a6.9,6.9,0,0,1-3.8-2.65,4.45,4.45,0,0,1,1.64-5.47,10.54,10.54,0,0,1,6.06-1.46c1.29-1.56.24-3.92-1-5.52s-2.77-3.41-2.3-5.39c.71-3,4.92-3.08,7.88-2.51,1.1-1.78,1.08-4,1.64-6.07s2.16-4.2,4.26-3.94,3.18,2.48,5.13,2.92c2.24.54,4.19-1.46,6-2.95s4.91-2.42,6.06-.46c.74,1.18.29,2.82,1.05,4,1.31,2,4.42.77,6.35-.65s5-2.72,6.37-.74a7.86,7.86,0,0,1,.74,2.05c.92,2.64,3.77,4,6,5.65s4,5,2.09,7.11c-.93,1-2.55,1.42-3,2.73-.59,1.64,1.08,3.07,2.39,4.18,2.18,1.85,2.57,7.4-.31,8.93-1.21.64-3,.83-3.28,2.16s.95,2.13,1.76,3.05a5.73,5.73,0,0,1-1,8,6,6,0,0,1-.75.49c-.68.33-1.54.61-1.8,1.33a2.72,2.72,0,0,0,.17,1.64,8.05,8.05,0,0,1,.27,3.09,1.34,1.34,0,0,1-.37,1,1.53,1.53,0,0,1-.9.26c-4.18.18-6.18-1.29-8.72,2.34a3.05,3.05,0,0,1-.87.92,2.78,2.78,0,0,1-1.14.28c-2.87.24-4.74-1.54-7.36-1.89-3.63-.45-4.4,1.41-7.6,2.92C191.8,260,189.36,258.51,188.43,255.09Z" fill="#ebebeb"/>
<path d="M163.51,271.91a14.43,14.43,0,0,1-.46-3c-.36-6.16-6.25-5.2-11.27-6-3.91-.66,6.46-10.53-1.44-13.73a6.88,6.88,0,0,1-3.8-2.65,4.45,4.45,0,0,1,1.64-5.47,10.48,10.48,0,0,1,6-1.51c1.29-1.64.25-3.91-1-5.52s-2.77-3.42-2.29-5.39c.7-3,4.91-3.08,7.88-2.5,1.09-1.81,1.08-4,1.63-6.1s2.17-4.18,4.26-3.93,3.28,2.47,5.13,2.93c2.24.53,4.19-1.46,6-2.95s4.92-2.42,6.06-.45c.74,1.18.3,2.81,1.05,4,1.33,2,4.42.75,6.36-.68s5-2.71,6.37-.73a8.31,8.31,0,0,1,.74,2.06c.91,2.64,3.76,4,6,5.64s4,5.06,2.1,7.12c-.94,1-2.56,1.43-3,2.72-.57,1.64,1.08,3.08,2.39,4.19,2.18,1.85,2.58,7.41-.31,8.93-1.21.64-3,.84-3.27,2.16s.95,2.13,1.75,3a5.74,5.74,0,0,1-1,8.05,6,6,0,0,1-.67.45c-.69.33-1.54.61-1.81,1.33a2.72,2.72,0,0,0,.18,1.64,8.47,8.47,0,0,1,.27,3.09,1.39,1.39,0,0,1-.38,1,1.44,1.44,0,0,1-.9.26c-4.18.18-6.18-1.29-8.72,2.33a3.18,3.18,0,0,1-.86.93,2.86,2.86,0,0,1-1.15.28c-2.87.23-4.73-1.56-7.35-1.89-3.64-.45-4.41,1.41-7.61,2.92C166.89,276.82,164.45,275.3,163.51,271.91Z" fill="#ebebeb"/>
<path d="M171.06,293.09s10.42,14.74,14,19.41,21.56,33.76,24,53c.26,2.07.52,3.84.77,5.38-7.72,51-6.56,144.3-6.25,160.29h24.57c.22-18,2.3-182.69,3.07-187.71.82-5.33,11.05-25.57,26.86-33.91s29.48-35.86,29.48-35.86h-5s-9.34,16.89-22.64,26.21a48.45,48.45,0,0,1-6,3.54,84.42,84.42,0,0,0-5.29-29.76l-2.72,2.5c3.69,15,3.28,24.67,2.08,30.21a55.26,55.26,0,0,0-13.74,9.2c-13.79-18-21.54-59-21.54-59l-3.54,1.94a210.32,210.32,0,0,0,4.57,25.14c2.58,10.62,10.19,30.6,13.73,39.67A94,94,0,0,0,217,342.91a7.76,7.76,0,0,0-1.34-1.63c-9-8.19-25.86-46.49-25.86-46.49-4.08-8.93,2.16-32.33,2.16-32.33h-4.82l-2.11,20.47L173.21,270l-2.15,1.92,12.57,16.16,6.55,20.5-17-18.64Z" fill="#e6e6e6"/>
<path d="M257.81,110a7.65,7.65,0,0,1,7.64-7.66h0a7.42,7.42,0,0,1,2.2.33,18.44,18.44,0,0,1-.17-2.35,16.18,16.18,0,0,1,16.15-16.21,15.39,15.39,0,0,1,3,.28,14.17,14.17,0,0,1,26.21,7.17h.23a13.1,13.1,0,0,1,0,26.11H265.25A7.66,7.66,0,0,1,257.81,110Z" fill="#f0f0f0"/>
<path d="M511.15,117.39a7.65,7.65,0,0,1,7.66-7.64,7.81,7.81,0,0,1,2.2.32,15.53,15.53,0,0,1-.18-2.36A16.19,16.19,0,0,1,537,91.45a15.7,15.7,0,0,1,3.06.28,14.17,14.17,0,0,1,26.21,7.16h.25a13.1,13.1,0,0,1,0,26.11h-47.9A7.66,7.66,0,0,1,511.15,117.39Z" fill="#f0f0f0"/>
<path d="M744,154.77a7.64,7.64,0,0,0-7.62-7.64,7.82,7.82,0,0,0-2.21.32,15.53,15.53,0,0,0,.18-2.36,16.2,16.2,0,0,0-16.2-16.2,16.75,16.75,0,0,0-3,.28,14.17,14.17,0,0,0-26.21,7.16h-.24a13.1,13.1,0,1,0-2.27,26.11,12.3,12.3,0,0,0,2.27,0h47.93A7.65,7.65,0,0,0,744,154.77Z" fill="#f0f0f0"/>
<path d="M141.07,137.77a4.76,4.76,0,0,1,4.74-4.77h0a5,5,0,0,1,1.38.22,9.14,9.14,0,0,1-.12-1.48,10.05,10.05,0,0,1,10.08-10,10.57,10.57,0,0,1,1.86.19,8.8,8.8,0,0,1,16.38,4.45h.15a8.19,8.19,0,0,1,2.19,16.23,8,8,0,0,1-2.19,0H145.69A4.77,4.77,0,0,1,141.07,137.77Z" fill="#f0f0f0"/>
<path d="M416.62,162.55a4.77,4.77,0,0,0-4.77-4.76h0a5.19,5.19,0,0,0-1.36.19,10,10,0,0,0-11.83-11.28,8.8,8.8,0,0,0-16.38,4.45h-.14a8.19,8.19,0,0,0,0,16.24h29.79A4.78,4.78,0,0,0,416.62,162.55Z" fill="#f0f0f0"/>
<path d="M420,416.3a8.36,8.36,0,0,1-.26-1.64c-.21-3.6-3.64-3-6.55-3.52-2.28-.38,3.75-6.13-.84-8a4.11,4.11,0,0,1-2.23-1.56,2.6,2.6,0,0,1,1-3.17,6,6,0,0,1,3.47-.87c.76-.92.15-2.29-.57-3.28s-1.64-2-1.34-3.14c.4-1.74,2.83-1.79,4.58-1.46a13.16,13.16,0,0,0,1-3.54c.31-1.19,1.25-2.44,2.48-2.29s1.85,1.44,3,1.64,2.44-.86,3.47-1.72,2.82-1.41,3.52-.27c.43.69.18,1.64.61,2.31.77,1.18,2.57.45,3.7-.37s2.91-1.64,3.7-.43a4.67,4.67,0,0,1,.44,1.2c.53,1.54,2.18,2.29,3.48,3.27s2.3,2.95,1.22,4.15c-.54.59-1.49.83-1.75,1.64s.62,1.78,1.38,2.42c1.27,1.08,1.5,4.32-.17,5.19-.7.38-1.75.49-1.91,1.26s.55,1.25,1,1.79a3.28,3.28,0,0,1-.54,4.6,3.46,3.46,0,0,1-.47.31c-.41.18-.9.35-1.05.77a1.59,1.59,0,0,0,.1.94,5.18,5.18,0,0,1,.16,1.8.85.85,0,0,1-.23.55.71.71,0,0,1-.52.15c-2.43.12-3.59-.74-5.08,1.36a1.59,1.59,0,0,1-.49.54,1.75,1.75,0,0,1-.67.17c-1.64.13-2.76-.9-4.28-1.1-2.11-.26-2.57.82-4.42,1.64C422,419.15,420.55,418.3,420,416.3Z" fill="#ebebeb"/>
<path d="M447.89,413.28a10.2,10.2,0,0,1-.27-1.73c-.21-3.59-3.63-3-6.55-3.51-2.27-.38,3.75-6.12-.83-8a3.93,3.93,0,0,1-2.21-1.55,2.61,2.61,0,0,1,1-3.18,6,6,0,0,1,3.49-.87c.74-.91.13-2.29-.59-3.27s-1.63-2-1.34-3.13c.43-1.74,2.83-1.79,4.59-1.46a13.16,13.16,0,0,0,.95-3.54c.31-1.19,1.26-2.44,2.47-2.29s1.85,1.44,3,1.64,2.44-.86,3.47-1.64,2.82-1.41,3.53-.26c.42.68.18,1.63.62,2.31.75,1.18,2.57.44,3.68-.38s2.92-1.64,3.71-.43a4.67,4.67,0,0,1,.44,1.2c.52,1.54,2.19,2.29,3.47,3.28s2.33,2.94,1.23,4.14c-.54.59-1.49.83-1.75,1.64s.62,1.78,1.39,2.42c1.26,1.08,1.49,4.31-.18,5.19-.71.38-1.74.5-1.92,1.27s.56,1.24,1,1.78a3.28,3.28,0,0,1-.54,4.6,3,3,0,0,1-.48.31c-.39.19-.9.35-1.05.77a1.68,1.68,0,0,0,.1.94,5.18,5.18,0,0,1,.17,1.8.84.84,0,0,1-.22.56.74.74,0,0,1-.54.14c-2.42.12-3.59-.75-5.06,1.36a1.65,1.65,0,0,1-.51.54,1.58,1.58,0,0,1-.67.17c-1.64.13-2.75-.9-4.27-1.1-2.12-.26-2.56.82-4.43,1.64C449.87,416.13,448.44,415.28,447.89,413.28Z" fill="#ebebeb"/>
<path d="M450.59,395.51a6.93,6.93,0,0,1-.26-1.64c-.22-3.58-3.66-3-6.56-3.5-2.27-.4,3.76-6.15-.83-8a4,4,0,0,1-2.21-1.54,2.62,2.62,0,0,1,1-3.19,6.1,6.1,0,0,1,3.49-.87c.75-.92.13-2.27-.59-3.27s-1.64-2-1.35-3.15c.43-1.64,2.84-1.78,4.59-1.46a11.69,11.69,0,0,0,.95-3.53c.31-1.18,1.26-2.45,2.47-2.3s1.85,1.44,3,1.72,2.44-.85,3.48-1.72,2.81-1.42,3.53-.28c.41.69.17,1.64.61,2.33.75,1.16,2.57.44,3.69-.39s2.91-1.64,3.71-.43a4.65,4.65,0,0,1,.43,1.2c.54,1.54,2.2,2.29,3.49,3.27s2.31,2.95,1.21,4.15c-.54.59-1.49.83-1.75,1.63s.62,1.79,1.39,2.44c1.26,1.09,1.49,4.31-.18,5.2-.7.36-1.74.47-1.92,1.26s.56,1.23,1,1.77a3.29,3.29,0,0,1-.55,4.6,3.66,3.66,0,0,1-.49.31c-.39.2-.9.35-1,.77a1.68,1.68,0,0,0,.09.94,4.74,4.74,0,0,1,.17,1.8.81.81,0,0,1-.21.55.9.9,0,0,1-.55.17c-2.42.1-3.58-.76-5.06,1.34a1.62,1.62,0,0,1-.5.54,1.75,1.75,0,0,1-.68.17c-1.63.14-2.75-.91-4.27-1.1-2.11-.26-2.56.82-4.42,1.64C452.54,398.36,451.13,397.51,450.59,395.51Z" fill="#ebebeb"/>
<path d="M468.92,404.37a7.24,7.24,0,0,1-.26-1.73c-.22-3.59-3.66-3-6.56-3.51-2.27-.38,3.75-6.14-.83-8a4,4,0,0,1-2.21-1.54,2.62,2.62,0,0,1,1-3.28,6.35,6.35,0,0,1,3.49-.87c.73-.91.13-2.27-.59-3.27s-1.64-2-1.35-3.13c.43-1.74,2.84-1.8,4.59-1.46a12.53,12.53,0,0,0,.95-3.55c.31-1.18,1.26-2.43,2.47-2.28s1.85,1.44,3,1.64,2.44-.85,3.48-1.64,2.81-1.41,3.53-.26c.41.67.17,1.64.61,2.31.75,1.16,2.57.44,3.69-.4s2.91-1.63,3.71-.42a5.14,5.14,0,0,1,.43,1.19c.54,1.54,2.19,2.31,3.49,3.28s2.31,2.93,1.21,4.13c-.54.6-1.49.83-1.75,1.64s.62,1.78,1.39,2.44c1.26,1.08,1.49,4.3-.18,5.19-.7.38-1.74.49-1.92,1.26s.56,1.23,1,1.77a3.28,3.28,0,0,1-.56,4.6,3,3,0,0,1-.48.31c-.39.2-.9.36-1,.77a1.68,1.68,0,0,0,.09.94,4.74,4.74,0,0,1,.17,1.8.87.87,0,0,1-.22.57,1,1,0,0,1-.54.15c-2.42.1-3.58-.75-5.06,1.36a1.58,1.58,0,0,1-.51.52,1.52,1.52,0,0,1-.67.18c-1.63.13-2.75-.9-4.27-1.09-2.11-.28-2.56.81-4.42,1.63C470.93,407.21,469.51,406.35,468.92,404.37Z" fill="#ebebeb"/>
<path d="M487.53,400.28a8.49,8.49,0,0,1-.25-1.74c-.21-3.59-3.65-3-6.55-3.5-2.28-.38,3.75-6.13-.84-8a4,4,0,0,1-2.21-1.56,2.6,2.6,0,0,1,1-3.18,6.11,6.11,0,0,1,3.49-.86c.74-.92.13-2.3-.59-3.28s-1.64-2-1.34-3.14c.42-1.74,2.83-1.79,4.58-1.46a12.46,12.46,0,0,0,.95-3.54c.31-1.2,1.26-2.44,2.48-2.29s1.85,1.44,3,1.63,2.44-.85,3.47-1.63,2.82-1.41,3.54-.27c.41.69.16,1.64.6,2.31.76,1.18,2.58.45,3.69-.37s2.92-1.64,3.7-.43a4,4,0,0,1,.44,1.2c.53,1.54,2.2,2.29,3.48,3.27s2.32,3,1.22,4.15c-.54.59-1.49.83-1.75,1.64s.62,1.78,1.39,2.42c1.27,1.08,1.5,4.32-.18,5.19-.7.38-1.73.49-1.91,1.26s.55,1.25,1,1.79a3.28,3.28,0,0,1-.55,4.6,3,3,0,0,1-.48.31c-.4.18-.9.35-1.05.77a1.59,1.59,0,0,0,.1.94,4.74,4.74,0,0,1,.16,1.8.81.81,0,0,1-.21.55.76.76,0,0,1-.54.15c-2.43.12-3.59-.73-5.06,1.36a1.29,1.29,0,0,1-1.18.71c-1.64.13-2.75-.9-4.28-1.1-2.11-.26-2.55.82-4.42,1.64C489.51,403.13,488.08,402.28,487.53,400.28Z" fill="#ebebeb"/>
<path d="M487.77,420.15a9.11,9.11,0,0,1-.2-1.36c-.18-2.84-2.86-2.38-5.15-2.77-1.81-.3,2.94-4.92-.68-6.29a3.13,3.13,0,0,1-1.73-1.21,2.05,2.05,0,0,1,.78-2.51,4.82,4.82,0,0,1,2.74-.69c.59-.72.11-1.8-.46-2.52s-1.26-1.64-1.05-2.47c.33-1.36,2.23-1.41,3.61-1.15a10,10,0,0,0,.75-2.78c.24-.95,1-1.94,1.95-1.81s1.46,1.13,2.34,1.33,1.93-.65,2.74-1.34,2.22-1.12,2.78-.22c.33.54.13,1.3.48,1.82.6.94,2,.36,2.91-.29s2.29-1.25,2.92-.35a4.69,4.69,0,0,1,.34.95c.41,1.22,1.72,1.81,2.74,2.59s1.81,2.31,1,3.28c-.42.46-1.18.65-1.39,1.24s.49,1.41,1.1,1.92c1,.85,1.18,3.39-.13,4.08-.56.29-1.38.39-1.51,1s.43,1,.8,1.39a2.64,2.64,0,0,1-.47,3.7l-.33.21c-.33.15-.72.28-.84.61a1.35,1.35,0,0,0,.09.74,4.18,4.18,0,0,1,.13,1.41.67.67,0,0,1-.18.45.78.78,0,0,1-.41.12c-1.92.08-2.84-.59-4,1.06a1.34,1.34,0,0,1-.39.43,1.38,1.38,0,0,1-.53.13c-1.32.1-2.17-.72-3.37-.87-1.64-.21-2,.66-3.47,1.35C489.33,422.39,488.21,421.72,487.77,420.15Z" fill="#ebebeb"/>
<path d="M498.19,413.28a7.24,7.24,0,0,1-.26-1.73c-.22-3.59-3.64-3-6.56-3.51-2.27-.38,3.76-6.12-.85-8a4,4,0,0,1-2.21-1.55,2.62,2.62,0,0,1,1-3.18,6.2,6.2,0,0,1,3.49-.87c.75-.91.13-2.29-.59-3.27s-1.64-2-1.33-3.13c.41-1.74,2.84-1.79,4.57-1.46a11.83,11.83,0,0,0,.95-3.54c.31-1.19,1.26-2.44,2.48-2.29s1.86,1.44,3,1.64,2.46-.86,3.47-1.64,2.83-1.41,3.54-.26c.42.68.16,1.63.6,2.31.77,1.18,2.58.44,3.71-.38s2.9-1.64,3.7-.43a4.63,4.63,0,0,1,.42,1.2c.55,1.54,2.2,2.29,3.49,3.28s2.31,2.94,1.22,4.14c-.54.59-1.5.83-1.76,1.64s.63,1.78,1.4,2.42c1.26,1.08,1.5,4.31-.18,5.19-.71.38-1.74.5-1.91,1.27s.55,1.24,1,1.78a3.28,3.28,0,0,1-.55,4.6,3,3,0,0,1-.48.31c-.39.19-.89.35-1,.77a1.51,1.51,0,0,0,.08.94,4.74,4.74,0,0,1,.16,1.8.83.83,0,0,1-.21.56.75.75,0,0,1-.54.14c-2.41.12-3.59-.75-5.06,1.36a1.76,1.76,0,0,1-.51.54,1.58,1.58,0,0,1-.67.17c-1.64.13-2.75-.9-4.28-1.1-2.11-.26-2.55.82-4.42,1.64C500.15,416.13,498.73,415.28,498.19,413.28Z" fill="#ebebeb"/>
<path d="M468.92,382.51a7.1,7.1,0,0,1-.26-1.64c-.22-3.59-3.66-3-6.56-3.51-2.27-.39,3.75-6.14-.83-8a4,4,0,0,1-2.21-1.54,2.63,2.63,0,0,1,1-3.2,6.09,6.09,0,0,1,3.49-.86c.73-.92.13-2.28-.59-3.28s-1.64-2-1.35-3.14c.43-1.72,2.84-1.79,4.59-1.46a12.14,12.14,0,0,0,.95-3.54c.31-1.18,1.26-2.44,2.47-2.28s1.85,1.43,3,1.64,2.44-.85,3.48-1.72,2.81-1.41,3.53-.28c.41.69.17,1.64.61,2.33.75,1.16,2.57.44,3.69-.39s2.91-1.64,3.71-.43a4.72,4.72,0,0,1,.43,1.19c.54,1.54,2.19,2.3,3.49,3.28s2.31,2.93,1.21,4.13c-.54.59-1.49.83-1.75,1.64s.62,1.78,1.39,2.44c1.26,1.08,1.49,4.31-.18,5.19-.7.36-1.74.47-1.92,1.26s.56,1.23,1,1.77a3.28,3.28,0,0,1-.56,4.6,3,3,0,0,1-.48.31c-.39.2-.9.35-1,.77a1.68,1.68,0,0,0,.09.94,4.74,4.74,0,0,1,.17,1.8.66.66,0,0,1-.76.72c-2.42.1-3.58-.75-5.06,1.34a1.55,1.55,0,0,1-.51.54,1.51,1.51,0,0,1-.67.17c-1.63.15-2.75-.9-4.27-1.1-2.11-.26-2.56.84-4.42,1.64C470.93,385.36,469.51,384.5,468.92,382.51Z" fill="#ebebeb"/>
<path d="M445.1,383.73a7.78,7.78,0,0,1-.26-1.73c-.21-3.59-3.64-3-6.55-3.51-2.28-.37,3.75-6.12-.85-8a4,4,0,0,1-2.22-1.54,2.63,2.63,0,0,1,1-3.18,6.23,6.23,0,0,1,3.49-.88c.76-.9.15-2.28-.59-3.28s-1.64-2-1.32-3.13c.41-1.73,2.83-1.8,4.57-1.46a12.31,12.31,0,0,0,.95-3.53c.31-1.2,1.26-2.44,2.49-2.3s1.85,1.44,3,1.64,2.46-.85,3.47-1.72,2.84-1.41,3.54-.26c.43.69.16,1.64.61,2.31.77,1.18,2.57.44,3.7-.38s2.91-1.64,3.7-.44a4.72,4.72,0,0,1,.43,1.21c.54,1.52,2.19,2.29,3.49,3.28s2.31,2.93,1.21,4.14c-.54.59-1.48.82-1.75,1.64s.63,1.79,1.39,2.42c1.28,1.09,1.5,4.31-.18,5.2-.71.37-1.74.49-1.9,1.26s.54,1.24,1,1.77a3.28,3.28,0,0,1-.55,4.6,3,3,0,0,1-.48.31c-.39.2-.88.36-1,.77a1.62,1.62,0,0,0,.08.95,4.52,4.52,0,0,1,.16,1.79.77.77,0,0,1-.21.57.88.88,0,0,1-.52.15c-2.43.11-3.61-.76-5.08,1.36a2,2,0,0,1-.51.54,1.73,1.73,0,0,1-.67.16c-1.64.13-2.75-.9-4.27-1.1-2.12-.26-2.56.82-4.41,1.64C447.07,386.57,445.64,385.73,445.1,383.73Z" fill="#ebebeb"/>
<path d="M430.61,393.5a7.33,7.33,0,0,1-.27-1.74c-.21-3.59-3.63-3-6.55-3.51-2.28-.37,3.75-6.12-.83-8a4.09,4.09,0,0,1-2.23-1.64,2.63,2.63,0,0,1,1-3.18,6.19,6.19,0,0,1,3.49-.88c.75-.9.14-2.28-.59-3.28s-1.64-2-1.33-3.13c.41-1.73,2.83-1.78,4.59-1.46a13.05,13.05,0,0,0,.93-3.53c.31-1.2,1.26-2.44,2.49-2.3s1.85,1.44,3,1.64,2.44-.85,3.46-1.72,2.83-1.41,3.53-.26c.43.69.17,1.64.61,2.31.77,1.18,2.57.44,3.7-.38s2.92-1.64,3.7-.42a3.86,3.86,0,0,1,.43,1.19c.54,1.54,2.2,2.3,3.49,3.28s2.31,3,1.21,4.14c-.52.59-1.47.84-1.75,1.64s.64,1.79,1.39,2.42c1.28,1.09,1.51,4.31-.18,5.2-.7.37-1.74.49-1.9,1.26s.54,1.24,1,1.77a3.37,3.37,0,0,1-.69,4.7l-.33.21c-.41.18-.9.35-1.05.77a1.49,1.49,0,0,0,.1.93,4.61,4.61,0,0,1,.15,1.81.76.76,0,0,1-.21.55.72.72,0,0,1-.53.15c-2.42.12-3.6-.75-5.08,1.36a1.84,1.84,0,0,1-.5.54,1.4,1.4,0,0,1-.66.16c-1.64.14-2.77-.9-4.27-1.09-2.12-.26-2.58.82-4.43,1.64C432.57,396.4,431.15,395.49,430.61,393.5Z" fill="#ebebeb"/>
<path d="M435,405.85s6.07,8.56,8.19,11.28,12.54,19.66,14,30.85c.16,1.19.31,2.22.46,3.11-4.51,29.68-3.8,84-3.64,93.25H468.2c.13-10.47,1.34-106.27,1.78-109.19s6.44-14.89,15.63-19.74,17.15-20.85,17.15-20.85h-2.93s-5.44,9.83-13.11,15.25a31.06,31.06,0,0,1-3.47,2.06,49.21,49.21,0,0,0-3.08-17.31L478.53,396c2.15,8.75,1.87,14.35,1.22,17.57a32.13,32.13,0,0,0-8,5.34c-8-10.41-12.53-34.28-12.53-34.28l-2.06,1.13a120.91,120.91,0,0,0,2.65,14.63q3.42,11.73,8,23.08a54.19,54.19,0,0,0-6.06,11.37,3.85,3.85,0,0,0-.78-.92c-5.23-4.74-15-27.06-15-27.06-2.37-5.18,1.25-18.81,1.25-18.81h-2.82L443.12,400l-6.9-7.52L435,393.51l7.32,9.4L446,414.82,436.21,404Z" fill="#e6e6e6"/>
<path d="M327.79,566.89c1-3.94,5.81-24.76-7.8-29.25-15-4.91-24-16.61-23.47-29.8s-15.33-26-27.23-13.66-10.28-9.5-26.12-14.74S213.9,487,218.22,498.79s-11.28,19.13-30,9.12-39.31,8.19-35.34,22.46.72,15.84-11.14,11.09-32.48,8.38-25.85,25.5Z" fill="#ebebeb"/>
<path d="M412.16,566.89H299.25c-2.78-5.5,1.64-12.87,6.56-13.84,5.48-1.09,11-10.76,11.27-16.9s10.15-25.08,25.52-13.4,10.71,1.72,21.83-1.56,18.15,6.16,13.27,13.24c0,0,11.17-2.8,15.77,7.65s0,16.9,0,16.9S409.2,558.56,412.16,566.89Z" fill="#ebebeb"/>
<path d="M525.48,566.89c-1.05-3.94-5.83-24.76,7.78-29.25,15-4.91,24-16.61,23.47-29.8s15.35-26,27.22-13.66,10.31-9.5,26.21-14.74,29.27,7.57,24.93,19.35,11.31,19.13,30,9.12,39.31,8.19,35.37,22.46-.73,15.84,11.12,11.09,32.48,8.38,25.85,25.5Z" fill="#ebebeb"/>
<path d="M391.93,566.89H504.82c2.79-5.5-1.64-12.87-6.45-13.84-5.5-1.09-11-10.76-11.27-16.9s-10.16-25.08-25.54-13.4-10.69,1.72-21.81-1.56-18.15,6.16-13.27,13.24c0,0-11.17-2.8-15.78,7.65s0,16.9,0,16.9S394.9,558.56,391.93,566.89Z" fill="#ebebeb"/>
</g>
<g id="e7fc7231-ca73-419b-989f-3e3fc7e0f1f7" data-name="freepik--Shadow--inject-54">
<ellipse id="b332fd71-147e-4e34-9290-2bf7edc667a8" data-name="freepik--path--inject-54" cx="432.88" cy="621.19" rx="317.59" ry="18.54" fill="#f5f5f5"/>
</g>
<g id="a4dc5ec9-d551-46bc-82d5-b22bc34767bd" data-name="freepik--Tree--inject-54">
<path d="M650.24,572.82s-3.83-.19-4.21-10.68,6.38-13.26,11.57-12c0,0-.75-7.45,2.6-7.17s3.13,5.26,3.13,5.26,1.15-10.58,5.75-10.58,0,12.49,0,12.49,6.36-3,8.68,0-2.91,6.64-2.91,6.64a8,8,0,0,1,5.29,10,9,9,0,0,1-.49,1.21s5.73.89,7.33,4.72c0,0-.45-7.71,1.64-7.2s1.64,7.28,1.64,7.28,3.44-7.43,6.42-4.8-1.37,8.93-1.37,8.93,5.75-2.8,6.66.9-3.27,5.06-3.27,5.06,6-1.37,6,5.48c0,0,11.46-1.1,14.23,5.06H650.47Z" fill="#0071f2" data-primary="true"/>
<path d="M650.24,572.82s-3.83-.19-4.21-10.68,6.38-13.26,11.57-12c0,0-.75-7.45,2.6-7.17s3.13,5.26,3.13,5.26,1.15-10.58,5.75-10.58,0,12.49,0,12.49,6.36-3,8.68,0-2.91,6.64-2.91,6.64a8,8,0,0,1,5.29,10,9,9,0,0,1-.49,1.21s5.73.89,7.33,4.72c0,0-.45-7.71,1.64-7.2s1.64,7.28,1.64,7.28,3.44-7.43,6.42-4.8-1.37,8.93-1.37,8.93,5.75-2.8,6.66.9-3.27,5.06-3.27,5.06,6-1.37,6,5.48c0,0,11.46-1.1,14.23,5.06H650.47Z" fill="#fff" opacity="0.4" style="isolation:isolate"/>
<path d="M649.43,465.54C651.06,492.6,660,592.86,660,592.86l-64.73.59,18.24-181.1-29-8.86-6.11-17.61L553.77,372l-12-18.41,4.62-1.12,13.25,17,15.44,3.35-6.55-15.65h7.37l18.38,36.28,18.89,3.86,1.72-66c19,8.86,25-5.88,25-5.88s4.91,103.34,7.66,111.16h0a40.4,40.4,0,0,0,7.75-5.61,90.44,90.44,0,0,0,16.5-19.52l1.23-1.93h5.88Z" fill="#263238"/>
<g opacity="0.5">
<path d="M649.43,465.54C651.06,492.6,660,592.86,660,592.86l-64.73.59,18.24-181.1-29-8.86-6.11-17.61L553.77,372l-12-18.41,4.62-1.12,13.25,17,15.44,3.35-6.55-15.65h7.37l18.38,36.28,18.89,3.86,1.72-66c19,8.86,25-5.88,25-5.88s4.91,103.34,7.66,111.16h0a40.4,40.4,0,0,0,7.75-5.61,90.44,90.44,0,0,0,16.5-19.52l1.23-1.93h5.88Z" fill="#fff"/>
</g>
<path d="M581.17,381l7.9,15.22,24.68,6.24s-.08-3.88-.49-8.86l-.1,3.73-18.89-3.86L575.9,357.17h-7.38l6.56,15.65-15.45-3.35-13.25-17-.64.15,10.2,15.45Z" opacity="0.1" style="isolation:isolate"/>
<polygon points="616.7 503.9 610.88 593.3 621.15 593.2 621.15 522.64 616.7 503.9" opacity="0.1" style="isolation:isolate"/>
<path d="M649.43,465.54l29.48-56H673l-1.23,1.93A90.68,90.68,0,0,1,655.31,431a41,41,0,0,1-7.75,5.61c-2.75-7.82-7.67-111.16-7.67-111.16a15.21,15.21,0,0,1-9.94,8.19l-.84,100.16c-2.09-4.76-3.91-9.3-4.09-14.25-.62,13.68-1.46,28.39-1.39,41.89L635,503.24,637.22,593l22.77-.2S651.08,492.6,649.43,465.54Z" opacity="0.1" style="isolation:isolate"/>
<path d="M722.3,290.6A24.55,24.55,0,0,1,737.94,314a26.84,26.84,0,0,1-16.38,23.29,29.66,29.66,0,0,1-28.51-3.75c-.41,9.63-7,20.1-16.19,22.93A24.29,24.29,0,0,1,651,348.27c-24.75,15.56-111.39,21.29-126.65-44.9-3.15-13.67,4.47-28.17,15.64-36.67s25.35-12,39.31-13.68c13.2-21.05,42.59-32.55,67.16-29.24a66.69,66.69,0,0,1,53.72,45.72C725.28,269.71,722.66,292.27,722.3,290.6Z" fill="#0071f2" data-primary="true"/>
<g opacity="0.6">
<path d="M722.3,290.6A24.55,24.55,0,0,1,737.94,314a26.84,26.84,0,0,1-16.38,23.29,29.66,29.66,0,0,1-28.51-3.75c-.41,9.63-7,20.1-16.19,22.93A24.29,24.29,0,0,1,651,348.27c-24.75,15.56-111.39,21.29-126.65-44.9-3.15-13.67,4.47-28.17,15.64-36.67s25.35-12,39.31-13.68c13.2-21.05,42.59-32.55,67.16-29.24a66.69,66.69,0,0,1,53.72,45.72C725.28,269.71,722.66,292.27,722.3,290.6Z" fill="#fff"/>
</g>
<path d="M691.69,420.87A13.27,13.27,0,0,1,668,417.15c-5.87,4.13-14.92,3.11-20.87-.92a17.81,17.81,0,0,1,7.68-32.4,21.3,21.3,0,0,1,10-16.2,23.17,23.17,0,0,1,19.8-2.08,24.22,24.22,0,0,1,21.05,6.75,19.19,19.19,0,0,1,6.16,14.86c-.46,5.5-4.49,10.81-9.93,11.86a16.35,16.35,0,0,1,.57,12.9C700.68,416.05,695.94,419.33,691.69,420.87Z" fill="#0071f2" data-primary="true"/>
<path d="M691.69,420.87A13.27,13.27,0,0,1,668,417.15c-5.87,4.13-14.92,3.11-20.87-.92a17.81,17.81,0,0,1,7.68-32.4,21.3,21.3,0,0,1,10-16.2,23.17,23.17,0,0,1,19.8-2.08,24.22,24.22,0,0,1,21.05,6.75,19.19,19.19,0,0,1,6.16,14.86c-.46,5.5-4.49,10.81-9.93,11.86a16.35,16.35,0,0,1,.57,12.9C700.68,416.05,695.94,419.33,691.69,420.87Z" fill="#fff" opacity="0.7" style="isolation:isolate"/>
<path d="M566.94,320.75A13.25,13.25,0,0,1,583.66,338c7.17.21,13.81,6.47,16.15,13.25a17.81,17.81,0,0,1-25.6,21.29,21.15,21.15,0,0,1-17.71,6.95,23.14,23.14,0,0,1-17.15-10.19,24.25,24.25,0,0,1-12.77-18,19.12,19.12,0,0,1,4-15.56c3.69-4.14,10.09-6,15.06-3.52a16.23,16.23,0,0,1,7.3-10.66C556.89,319.2,562.63,319.41,566.94,320.75Z" fill="#0071f2" data-primary="true"/>
<path d="M566.94,320.75A13.25,13.25,0,0,1,583.66,338c7.17.21,13.81,6.47,16.15,13.25a17.81,17.81,0,0,1-25.6,21.29,21.15,21.15,0,0,1-17.71,6.95,23.14,23.14,0,0,1-17.15-10.19,24.25,24.25,0,0,1-12.77-18,19.12,19.12,0,0,1,4-15.56c3.69-4.14,10.09-6,15.06-3.52a16.23,16.23,0,0,1,7.3-10.66C556.89,319.2,562.63,319.41,566.94,320.75Z" fill="#fff" opacity="0.7" style="isolation:isolate"/>
<path d="M654,590.83s-23.77-15.42-19.26-18,20.36,12.77,20.36,12.77S637.6,560,641.92,554.82s16,20.89,16,20.89-7.93-29.77-2.33-33,7.64,29.82,7.64,29.82,2.18-35.85,12.43-35.41S671,572.51,671,572.51s14.45-20.75,19.66-14.85-16.38,22.42-16.38,22.42,16-7.55,17.11-2-17.7,11.55-17.7,11.55,6,1.72,7.43,3.75H649S648.48,591.91,654,590.83Z" fill="#0071f2" data-primary="true"/>
<path d="M654,590.83s-23.77-15.42-19.26-18,20.36,12.77,20.36,12.77S637.6,560,641.92,554.82s16,20.89,16,20.89-7.93-29.77-2.33-33,7.64,29.82,7.64,29.82,2.18-35.85,12.43-35.41S671,572.51,671,572.51s14.45-20.75,19.66-14.85-16.38,22.42-16.38,22.42,16-7.55,17.11-2-17.7,11.55-17.7,11.55,6,1.72,7.43,3.75H649S648.48,591.91,654,590.83Z" fill="#fff" opacity="0.6" style="isolation:isolate"/>
</g>
<g id="a1a29cf8-f123-49b0-a86a-8338cc142228" data-name="freepik--Plants--inject-54">
<path d="M209.16,562.18s-16.77-61.48-30.4-80.94,8.19,44,8.19,44-19-40.39-25-39.18,19.66,45,19.66,45-19.66-35-28.16-29.25,25,41.65,25,41.65-30.06-22.54-33.05-16.28,29.17,26.34,29.17,26.34-30.63-6.19-33.84,4.59,30.47,9.17,30.47,9.17-15.58-.71-18.55,10.56S193.49,585,209.16,562.18Z" fill="#0071f2" data-primary="true"/>
<path d="M209.16,562.18s-16.77-61.48-30.4-80.94,8.19,44,8.19,44-19-40.39-25-39.18,19.66,45,19.66,45-19.66-35-28.16-29.25,25,41.65,25,41.65-30.06-22.54-33.05-16.28,29.17,26.34,29.17,26.34-30.63-6.19-33.84,4.59,30.47,9.17,30.47,9.17-15.58-.71-18.55,10.56S193.49,585,209.16,562.18Z" fill="#fff" opacity="0.4" style="isolation:isolate"/>
<path d="M217.71,580S195,536.18,199.58,528.52s14.33,17.1,14.33,17.1-17.54-56.07-11.22-62.25,18,48.27,18,48.27-6.16-63.8,0-67.15,9.06,57.72,9.06,57.72,4.19-64.7,11.92-63.73,0,57.49,0,57.49,17.29-43,25-41.28-12.37,44.56-12.37,44.56,20.47-25.84,26.39-19.78-18.3,34.4-18.3,34.4,20.77-12.94,26.21-6.55-21.79,20.39-21.79,20.39S289,553.46,287.46,559s-20.61,4.76-20.61,4.76S258.47,602.91,217.71,580Z" fill="#0071f2" data-primary="true"/>
<path d="M217.71,580S195,536.18,199.58,528.52s14.33,17.1,14.33,17.1-17.54-56.07-11.22-62.25,18,48.27,18,48.27-6.16-63.8,0-67.15,9.06,57.72,9.06,57.72,4.19-64.7,11.92-63.73,0,57.49,0,57.49,17.29-43,25-41.28-12.37,44.56-12.37,44.56,20.47-25.84,26.39-19.78-18.3,34.4-18.3,34.4,20.77-12.94,26.21-6.55-21.79,20.39-21.79,20.39S289,553.46,287.46,559s-20.61,4.76-20.61,4.76S258.47,602.91,217.71,580Z" fill="#fff" opacity="0.5" style="isolation:isolate"/>
<path d="M211.75,566.29h.15a.84.84,0,0,0,.67-.95c-.13-.71-12.92-70.44-43.46-100.39a.82.82,0,1,0-1.14,1.17h0c30.15,29.65,42.85,98.81,43,99.5A.82.82,0,0,0,211.75,566.29Z" fill="#2f2e41" data-secondary="true"/>
<path d="M164.46,465.52a4,4,0,1,0,4-4A4,4,0,0,0,164.46,465.52Z" fill="#2f2e41" data-secondary="true"/>
<path d="M177.35,498.05a3.46,3.46,0,1,0,3.54-3.37h0A3.46,3.46,0,0,0,177.35,498.05Z" fill="#2f2e41" data-secondary="true"/>
<path d="M192.72,488.12a3.46,3.46,0,1,0,3.47-3.44h0A3.47,3.47,0,0,0,192.72,488.12Z" fill="#2f2e41" data-secondary="true"/>
<path d="M182,510.55a3.46,3.46,0,1,0,3.47-3.44h0A3.46,3.46,0,0,0,182,510.55Z" fill="#2f2e41" data-secondary="true"/>
<path d="M197.78,505.62a3.46,3.46,0,1,0,3.46-3.46h0a3.44,3.44,0,0,0-3.44,3.44Z" fill="#263238"/>
<path d="M180.63,469.56a3.46,3.46,0,1,0,3.46-3.45h0a3.44,3.44,0,0,0-3.44,3.44Z" fill="#2f2e41" data-secondary="true"/>
<path d="M184.87,487.29V469.56a.82.82,0,0,0-1.64,0v15.63l-14.52-3.62a.84.84,0,0,0-1,.61.81.81,0,0,0,.6,1Z" fill="#2f2e41" data-secondary="true"/>
<path d="M192.26,502.11l4.68-13.81a.81.81,0,1,0-1.47-.7,1,1,0,0,0-.07.18l-4.22,12.42L181.06,498a.84.84,0,0,0-.36,1.64Z" fill="#2f2e41" data-secondary="true"/>
<path d="M198.12,516.58,202,505.9a.82.82,0,1,0-1.52-.6.05.05,0,0,0,0,0l-3.28,9.07-11.46-4.62a.82.82,0,0,0-1.07.45.84.84,0,0,0,.46,1.08Z" fill="#2f2e41" data-secondary="true"/>
<path d="M164.25,482.54a3.46,3.46,0,1,0,3.46-3.46h0A3.46,3.46,0,0,0,164.25,482.54Z" fill="#2f2e41" data-secondary="true"/>
<path d="M253,584.45a.81.81,0,0,0,.67-.32c16.15-22.31,36.12-46.64,61.7-58a.82.82,0,0,0-.66-1.51h0c-25.93,11.56-46.08,36-62.36,58.57a.84.84,0,0,0,.18,1.15A.9.9,0,0,0,253,584.45Z" fill="#2f2e41" data-secondary="true"/>
<path d="M318.76,526.75a4,4,0,1,1-2.38-5.2h0a4,4,0,0,1,2.38,5.16Z" fill="#2f2e41" data-secondary="true"/>
<path d="M316,543a4,4,0,1,1-2.36-5.2A4,4,0,0,1,316,543Z" fill="#2f2e41" data-secondary="true"/>
<path d="M295.29,552.68a3.44,3.44,0,1,1-2-4.44,3.44,3.44,0,0,1,2,4.44Z" fill="#2f2e41" data-secondary="true"/>
<path d="M284.41,537.93a3.46,3.46,0,1,1-2-4.44h0A3.44,3.44,0,0,1,284.41,537.93Z" fill="#263238"/>
<path d="M286.54,562.77a3.44,3.44,0,1,1-2-4.43h0A3.46,3.46,0,0,1,286.54,562.77Z" fill="#2f2e41" data-secondary="true"/>
<path d="M273.52,552.63a3.44,3.44,0,1,1-2-4.44,3.44,3.44,0,0,1,2,4.44Z" fill="#2f2e41" data-secondary="true"/>
<path d="M302.24,524.88a3.44,3.44,0,1,1-2-4.44,3.45,3.45,0,0,1,2,4.44Z" fill="#2f2e41" data-secondary="true"/>
<path d="M309.08,542a.8.8,0,0,0,.8-.72.81.81,0,0,0-.72-.9l-14.87-1.74L299.78,524a.85.85,0,0,0-.49-1.06.83.83,0,0,0-1.05.49L292,540l17,2Z" fill="#2f2e41" data-secondary="true"/>
<path d="M291.77,552.92a.82.82,0,0,0,.87-.77.83.83,0,0,0-.77-.87l-10.27-1.4.39-13.11a.8.8,0,0,0-.77-.83h0a.86.86,0,0,0-.85.78l-.44,14.58,11.74,1.64Z" fill="#2f2e41" data-secondary="true"/>
<path d="M269.34,562.77l14-.38a.83.83,0,0,0,.81-.83v0a.88.88,0,0,0-.86-.79l-12.27.33.1-9.65a.82.82,0,0,0-.8-.83h0a.81.81,0,0,0-.81.82Z" fill="#2f2e41" data-secondary="true"/>
<path d="M318.83,593.45H134.77s46.48-15.24,47.65-19.5,1.13-7.3,6.79-11.05,13.47-6,15.63-10.14S213.68,542,216,540.08s29.94,12,30.27,12.29,8,15.39,10.62,18.75,20.68-.74,25,2.83,18.82,12.78,18.82,12.78S307.85,585.73,318.83,593.45Z" fill="#2f2e41" data-secondary="true"/>
<path d="M318.83,593.45H134.77s46.48-15.24,47.65-19.5,1.13-7.3,6.79-11.05,13.47-6,15.63-10.14S213.68,542,216,540.08s29.94,12,30.27,12.29,8,15.39,10.62,18.75,20.68-.74,25,2.83,18.82,12.78,18.82,12.78S307.85,585.73,318.83,593.45Z" fill="#fff" opacity="0.3" style="isolation:isolate"/>
<path d="M397.73,593.45c3-4.25,10.88-14.88,14.74-13.11,6.16,2.8,10.73-12.58,17.55-8.94,2.4,1.29,1.22,5.4,2.75,7.06,2.49,2.73,5.66,2.21,8.7,3.72,5.33,2.65,7.58,6.11,10.12,11.3Z" fill="#2f2e41" data-secondary="true"/>
<path d="M402.68,590.4s3.65-21.29,1.13-24.34-3,11.58-3,11.58S392.34,547,386.9,546.8s6.46,26.61,6.46,26.61-23.23-37.95-30-34.39,24.31,37.18,24.31,37.18-17-14.61-20.72-10.48,18.85,16.74,18.85,16.74-10-2.23-10,1.08S392.7,592.28,402.68,590.4Z" fill="#0071f2" data-primary="true"/>
<path d="M402.68,590.4s3.65-21.29,1.13-24.34-3,11.58-3,11.58S392.34,547,386.9,546.8s6.46,26.61,6.46,26.61-23.23-37.95-30-34.39,24.31,37.18,24.31,37.18-17-14.61-20.72-10.48,18.85,16.74,18.85,16.74-10-2.23-10,1.08S392.7,592.28,402.68,590.4Z" fill="#fff" opacity="0.4" style="isolation:isolate"/>
<path d="M406,587.37s17.46-3.16,19.15-6-9.83,1-9.83,1,21.29-15.23,19.92-19.47-18.76,12.49-18.76,12.49,22.79-28.68,18.15-32.89-21.88,29.29-21.88,29.29,6.55-17.26,2.26-19-7.64,19.31-7.64,19.31-1.08-8.34-3.65-7.39S401.76,580.18,406,587.37Z" fill="#0071f2" data-primary="true"/>
<path d="M406,587.37s17.46-3.16,19.15-6-9.83,1-9.83,1,21.29-15.23,19.92-19.47-18.76,12.49-18.76,12.49,22.79-28.68,18.15-32.89-21.88,29.29-21.88,29.29,6.55-17.26,2.26-19-7.64,19.31-7.64,19.31-1.08-8.34-3.65-7.39S401.76,580.18,406,587.37Z" fill="#fff" opacity="0.4" style="isolation:isolate"/>
<path d="M407.33,585s16.85-16.88,16.56-21.29-10.07,8.58-10.07,8.58,11.87-33.18,7.06-36.79-11.14,28.21-11.14,28.21,3.19-49.14-5.18-50.29-1.64,49.14-1.64,49.14-6.06-24.08-12.09-22.72,6.39,27.19,6.39,27.19-7.58-8.38-9.69-5.38S397.09,580.39,407.33,585Z" fill="#0071f2" data-primary="true"/>
<path d="M407.33,585s16.85-16.88,16.56-21.29-10.07,8.58-10.07,8.58,11.87-33.18,7.06-36.79-11.14,28.21-11.14,28.21,3.19-49.14-5.18-50.29-1.64,49.14-1.64,49.14-6.06-24.08-12.09-22.72,6.39,27.19,6.39,27.19-7.58-8.38-9.69-5.38S397.09,580.39,407.33,585Z" fill="#fff" opacity="0.5" style="isolation:isolate"/>
<path d="M384,593.45c3.7-3.69,7.83-7.13,9.7-6.28,4.91,2.23,8.55-10,14-7.12,1.92,1,1,4.29,2.2,5.62,2,2.17,4.52,1.75,6.92,3a10.09,10.09,0,0,1,4.66,4.82Z" fill="#2f2e41" data-secondary="true"/>
<path d="M384,593.45c3.7-3.69,7.83-7.13,9.7-6.28,4.91,2.23,8.55-10,14-7.12,1.92,1,1,4.29,2.2,5.62,2,2.17,4.52,1.75,6.92,3a10.09,10.09,0,0,1,4.66,4.82Z" fill="#fff" opacity="0.2" style="isolation:isolate"/>
</g>
<path d="M507.47,628.33,500,627.06a.54.54,0,0,1-.21-1c2.5-1.63,8.71-5.3,13.22-4.48l14,.87,4.19,4L513,628.33Z" fill="#2f2e41" data-secondary="true"/>
<path d="M507.47,628.33,500,627.06a.54.54,0,0,1-.21-1c2.5-1.63,8.71-5.3,13.22-4.48l14,.87,4.19,4L513,628.33Z" opacity="0.3"/>
<path d="M525.32,641H516.4a.69.69,0,0,1-.5-1.17c2.35-2.5,9.47-8,25.42-6.39l2.8.53-.88,2.09Z" fill="#2f2e41" data-secondary="true"/>
<path d="M525.32,641H516.4a.69.69,0,0,1-.5-1.17c2.35-2.5,9.47-8,25.42-6.39l2.8.53-.88,2.09Z" opacity="0.2"/>
<path d="M527,610.6v11.87a2.82,2.82,0,0,1-3.49,2.1s-17.13.31-20.93,8.61a1,1,0,0,0,1.12,1.48c1.23-.21,3.33-.61,6.88-1.41a3.38,3.38,0,0,0,.64-.19c1.75-.68,11.22-4.15,18.69-2.73,0,0,22.76,3.14,27.65-.17,0,0,3.32-1-1.74-2.8,0,0-10.83-2.79-16.77-2.09a2.8,2.8,0,0,1-2.06-2.54s-.49-7.62,0-11.1l-9.12-3.3Z" fill="#2f2e41" data-secondary="true"/>
<path d="M527,610.6v11.87a2.82,2.82,0,0,1-3.49,2.1s-17.13.31-20.93,8.61a1,1,0,0,0,1.12,1.48c1.23-.21,3.33-.61,6.88-1.41a3.38,3.38,0,0,0,.64-.19c1.75-.68,11.22-4.15,18.69-2.73,0,0,22.76,3.14,27.65-.17,0,0,3.32-1-1.74-2.8,0,0-10.83-2.79-16.77-2.09a2.8,2.8,0,0,1-2.06-2.54s-.49-7.62,0-11.1l-9.12-3.3Z" opacity="0.2"/>
<path d="M541.32,635.4V613l10.3-2.44v22.53s-.58,2.71,3.15,3.31c0,0,13,3.24,15.61,7a1.32,1.32,0,0,1-1,2.06c-1.65.13-5.14-.33-12.37-3.28,0,0-7.34-3.85-14.32-.35,0,0-6.11,3.72-12.39,3.69a5.57,5.57,0,0,0-2.2.47c-1.73.74-4.92,1.9-5.67.9C522.46,646.92,521.06,637.84,541.32,635.4Z" fill="#2f2e41" data-secondary="true"/>
<path d="M517.52,600.24s5.06,14.84,19.47,11.39l-3.35-23.21L515,594.18Z" fill="#0071f2" data-primary="true"/>
<path d="M517.52,600.24s5.06,14.84,19.47,11.39l-3.35-23.21L515,594.18Z" opacity="0.3"/>
<path d="M532.09,601.53S533.81,616,546,613.92c0,0,7.1-.09,10.18-4.94a16.49,16.49,0,0,0,2.39-10.08l-27.42-2.8Z" fill="#0071f2" data-primary="true"/>
<path d="M532.09,601.53S533.81,616,546,613.92c0,0,7.1-.09,10.18-4.94a16.49,16.49,0,0,0,2.39-10.08l-27.42-2.8Z" opacity="0.2"/>
<path d="M245.44,627.65s24-3.19,40.21,8.83a1.73,1.73,0,0,1-.94,3.12l-12.63.61-25-4-8-6.49Z" fill="#2f2e41" data-secondary="true"/>
<path d="M245.44,627.65s24-3.19,40.21,8.83a1.73,1.73,0,0,1-.94,3.12l-12.63.61-25-4-8-6.49Z" opacity="0.4"/>
<path d="M270.32,610.3s21.39-6.66,37.17,1.05c0,0,9.46,3.33,8.58,5.43,0,0-3.94,4-14.94,1.36L265.25,615Z" fill="#2f2e41" data-secondary="true"/>
<path d="M270.32,610.3s21.39-6.66,37.17,1.05c0,0,9.46,3.33,8.58,5.43,0,0-3.94,4-14.94,1.36L265.25,615Z" opacity="0.3"/>
<path d="M255.09,591.89s-3.2,11.75-2,17.18c0,0-1.38,4.91-5.41,4.39,0,0-34.52,2.64-29.79,8.15,0,0,4.38,7.09,30.32,1a130.42,130.42,0,0,1,34.34.87s23.83,7.36,28.92,6.31c0,0,1.05-3.49-5.26-8.14,0,0-10.24-10-32.41-8.4a2.48,2.48,0,0,1-2.13-.9c-.68-.87-1.4-2.51-1.4-5.51V588.4Z" fill="#2f2e41" data-secondary="true"/>
<path d="M253.14,591.64s10.77,5.85,21.93-5l12.44-13.49L257.4,563l-4.26,18.15Z" fill="#0071f2" data-primary="true"/>
<path d="M253.14,591.64s10.77,5.85,21.93-5l12.44-13.49L257.4,563l-4.26,18.15Z" opacity="0.4"/>
<path d="M228.12,591.89v36.16s-.26,4.17-7,5.21c0,0-28.21,6.13-24.18,14.54,0,0,.7,2.1,9.46-1.75,0,0,23.14-10.69,34.7-4.73,0,0,14,6.83,22.26,6.13a21.6,21.6,0,0,1,9.46,2.63s5.78,3.33,5.08-.88c0,0,1.58-6.3-15.6-15.24a41.65,41.65,0,0,0-17-2.28l1.57-39.79Z" fill="#2f2e41" data-secondary="true"/>
<path d="M228.12,591.89v36.16s-.26,4.17-7,5.21c0,0-28.21,6.13-24.18,14.54,0,0,.7,2.1,9.46-1.75,0,0,23.14-10.69,34.7-4.73,0,0,14,6.83,22.26,6.13a21.6,21.6,0,0,1,9.46,2.63s5.78,3.33,5.08-.88c0,0,1.58-6.3-15.6-15.24a41.65,41.65,0,0,0-17-2.28l1.57-39.79Z" opacity="0.3"/>
<path d="M387.74,433.66H382s3.61,22.79-14.15,28.4c0,0,7.48,18.69-1.16,42.27,0,0-2.11,8.89-6.54,7.25,0,0,.23,12.86-11.45,26.17v-7s-1.87,30.6-22.2,34.57l.69-3.69c-.36,1.16-6.59,20-22.88,19.35l2.08-9.07c-.28.87-5.06,14.9-22.7,14.74a55.76,55.76,0,0,0,2.27-5.27,13.17,13.17,0,0,1-10.86,5.27v-8.06a17.28,17.28,0,0,1-13.15,4.54s-1.23-.7-1.05-7.18c0,0-7.18,4.57-15.24,3.86v-4S240,574.2,236,580.34c0,0-1.07-4.91-3.34-7.18,0,0-3.34,11.72-9.81,4a19.53,19.53,0,0,0-5.73,2,14.38,14.38,0,0,0-6.36,6.26,22.23,22.23,0,0,1-3.68-9.29,12.47,12.47,0,0,0-6.31,4.14s-1.87-5.36-5.61-7.47c0,0,.47,5.84-7,2.81a29.71,29.71,0,0,1-3.75-6.79l-2.34,9.11a71.64,71.64,0,0,1-13.54-15.65l-3.27,3.27s-6.79-9.34-4.68-23.83l-4,6.32s-6-7.48,0-39.37c0,0,3-22.08,13.49-33.12l-2.45-.88s4.84-17.52,36.86-28l-4-1.86s19.62-19.87,46.73-18.94c0,0,11-12.84,48.29-3.73l.89-4.38s-5.79,0-2.64-3c0,0,8.77-8.77,12.27-13.49,0,0,13.33-19.29,30.14-17l-3.32-2.63s13.66-3.68,30.13,3.5C363,385.12,391.08,397.57,387.74,433.66Z" fill="#0071f2" data-primary="true"/>
<g opacity="0.2">
<path d="M172.83,527.62a.5.5,0,0,1-.49-.42c0-.14-1.93-13.54,8.41-31.45a.5.5,0,0,1,.87.5c-10.16,17.58-8.31,30.67-8.29,30.8a.51.51,0,0,1-.42.57Z"/>
<path d="M186,471.45a.5.5,0,0,1-.44-.73c.14-.29,3.73-7,16.11-10.45l.1,0c1-.29,2.12-.59,3.15-.94l11.79-4a.5.5,0,1,1,.32.95l-11.79,4c-1.06.36-2.15.67-3.2,1l-.1,0c-11.93,3.35-15.46,9.88-15.49,9.95A.51.51,0,0,1,186,471.45Z"/>
<path d="M211.3,454l-.15,0a.5.5,0,0,1-.33-.62c.07-.26,2-6.38,14.49-10.46,5.4-1.89,13.73-5.81,13.08-8.25a.5.5,0,0,1,1-.26c1.1,4.13-12.21,8.92-13.73,9.46-11.95,3.9-13.84,9.73-13.85,9.79A.51.51,0,0,1,211.3,454Z"/>
<path d="M296.82,456.27a.5.5,0,0,1-.3-.11.5.5,0,0,1-.09-.7c2.27-3,2.37-4.48,2.05-5.24a2.07,2.07,0,0,0-1.56-1,.5.5,0,0,1-.12-1c4.22-1.57,4.64-2.65,4.62-3,0-.72-1.5-1.37-2.2-1.58a.48.48,0,0,1-.35-.59c1.22-5.14,0-11.37,0-11.43-.45-3.37-1.18-3.72-1.4-3.75-.83-.12-2.26,2.23-3,3.85a.49.49,0,0,1-.6.28.51.51,0,0,1-.36-.56l1.54-9.37a.5.5,0,0,1,.57-.42.51.51,0,0,1,.41.58L295,428.67c.73-1.05,1.66-2,2.6-1.84,1.13.15,1.85,1.61,2.25,4.58a32.53,32.53,0,0,1,.09,11.37c.82.3,2.43,1.06,2.48,2.35s-1.24,2.35-4,3.53a2.59,2.59,0,0,1,1,1.16c.63,1.46-.1,3.56-2.17,6.25A.51.51,0,0,1,296.82,456.27Z"/>
<path d="M185.82,552.52h0a.49.49,0,0,1-.45-.54c.53-5.67-.95-7.54-1-7.55a.65.65,0,0,1-.11-.22,48,48,0,0,1,3.32-30.48.5.5,0,0,1,.68-.21.51.51,0,0,1,.2.68,46.81,46.81,0,0,0-3.24,29.69c.35.51,1.61,2.74,1.1,8.18A.49.49,0,0,1,185.82,552.52Z"/>
<path d="M198.69,562.17a.49.49,0,0,1-.32-.12c-7.25-6,2.86-32.5,3.3-33.63a.5.5,0,0,1,.93.36c-.1.27-10.3,26.94-3.59,32.5a.51.51,0,0,1,.06.71A.48.48,0,0,1,198.69,562.17Z"/>
<path d="M314.08,537a.48.48,0,0,1-.26-.07.47.47,0,0,1-.23-.36c-.53-3.84-3.8-7.4-5-8.64a2.42,2.42,0,0,1-2.09,1.45c-3.53-.06-8.15-10.47-9.92-14.78l-.13.78a.48.48,0,0,1-.28.38.49.49,0,0,1-.47,0c-8.13-4.83-7.1-26.88-7.05-27.82a.49.49,0,0,1,.52-.47.5.5,0,0,1,.48.52c0,.22-1,21.16,5.94,26.49l.3-1.79a.5.5,0,0,1,1-.1c2.33,6.09,7,15.78,9.67,15.82h0q.81,0,1.44-1.47a.5.5,0,0,1,.35-.3.51.51,0,0,1,.44.12c.2.17,4.76,4.25,5.74,9.1,2.16-.75,8-2.63,9.62-1.35a1.28,1.28,0,0,1,.48,1.22.49.49,0,0,1-.56.44.51.51,0,0,1-.44-.56.3.3,0,0,0-.1-.32c-1-.79-6,.53-9.22,1.71A.47.47,0,0,1,314.08,537Z"/>
</g>
<path d="M260.87,576a36.48,36.48,0,0,1-6.67,14.38c-5.12,7.69-20.49,4.7-20.49,4.7-12.4-.22-16.59-15.87-16.59-15.87a19.53,19.53,0,0,1,5.73-2c6.47,7.7,9.81-4,9.81-4,2.27,2.27,3.34,7.18,3.34,7.18,4-6.14,9.63-4.57,9.63-4.57v4C253.69,580.52,260.87,576,260.87,576Z" fill="#0071f2" data-primary="true"/>
<path d="M260.87,576a36.48,36.48,0,0,1-6.67,14.38c-5.12,7.69-20.49,4.7-20.49,4.7-12.4-.22-16.59-15.87-16.59-15.87a19.53,19.53,0,0,1,5.73-2c6.47,7.7,9.81-4,9.81-4,2.27,2.27,3.34,7.18,3.34,7.18,4-6.14,9.63-4.57,9.63-4.57v4C253.69,580.52,260.87,576,260.87,576Z" opacity="0.3"/>
<path d="M504.94,267.82l0,0a57.79,57.79,0,0,1-11.44,7.59,137.56,137.56,0,0,0-29.3,20.39c-12.95,11.64-30.06,28.35-44,46.63,0,0-30.9,36.05-41.32,65.31,0,0-5.08,9-13.07,4.67a18.81,18.81,0,0,1-5.41-4.67s-8.06-4.67-3.39-15.26l24.16-27.58S461.26,261.46,504.94,267.82Z" fill="#2f2e41" data-secondary="true"/>
<ellipse cx="342.72" cy="409.83" rx="5.19" ry="9.44" transform="translate(-191.39 421.99) rotate(-51.4)" fill="#2f2e41" data-secondary="true"/>
<circle cx="338.89" cy="406.54" r="2.21" fill="#fff"/>
<path d="M504.91,267.84a57.79,57.79,0,0,1-11.44,7.59,137.56,137.56,0,0,0-29.3,20.39c-12.95,11.64-30.06,28.35-44,46.63,0,0-30.9,36.05-41.32,65.31,0,0-5.08,9-13.07,4.67l14.46-23.11S454.39,281.1,504.91,267.84Z" opacity="0.4"/>
<path d="M492.43,494.09l-1.2-.53a2.55,2.55,0,0,1-1.38-3.16c1.83-5.36,8-18.47,24.84-19.47,0,0,18.85-4.84,27.11,15.62,0,0,2.15,9,6.46,10.06,0,0,8.8,3.95,11.49,9.33,0,0,21.37,6.83,18,11.85,0,0,10.95,7.55,15.62,18.68H591s13.28,10.16,14.91,23.48h-1.75s5,3.5.35,26.87c0,0-.93,11.21-6.54,17.52l-1.17-4.44s-3.27,11.92-7.94,12.62l-.94-2.34s-7.71,4.91-11.21,6.08l.93-5.37s-6.31,6.3-7.71-.24l-3.27,3.16s-2-3.16-3.39-3.39c0,0-2.57,4.09-4.09,4.2,0,0-.7-4.9-4.9-7,0,0-4.91,3.16-4.91-4.2a5,5,0,0,0-3.15,3.27s-2.22-3.39-4.79-4.32l-.82,3.27-7.83-5.49s-1.75,5.6-6.07,1.17l-2.92-3.51-1.41,4.91-4-4s-1.25,5-6-1.14c0,0-3.59-2.63-4.29-9.29l-1.23,5.43s-7.53-2.36-8.76-14.11c0,0-8.93-2.1-6.13-22.78,0,0-4.76.5-2.82-13.5,0,0-6.82-10.68,5.62-30C494.81,513.4,486.71,508.26,492.43,494.09Z" fill="#0071f2" data-primary="true"/>
<g opacity="0.2">
<path d="M585.56,540.2a.51.51,0,0,1-.5-.48c-.24-5.54-5.82-8-5.87-8.05-6.79-4.34-5.47-7.72-5.42-7.86a.5.5,0,0,1,.66-.27.49.49,0,0,1,.27.64c0,.07-.93,2.84,4.95,6.61.19.07,6.15,2.73,6.41,8.89a.49.49,0,0,1-.47.52Z"/>
</g>
<g opacity="0.2">
<path d="M596.89,555.39a.48.48,0,0,1-.47-.34c-2.49-7.7-15.6-14.84-15.73-14.91a.5.5,0,0,1,.48-.88c.55.3,13.59,7.4,16.2,15.48a.51.51,0,0,1-.33.63Z"/>
</g>
<g opacity="0.2">
<path d="M570.62,603.54a.49.49,0,0,1-.44-.26.5.5,0,0,1,.19-.68c8.51-4.87,3.35-18,3.3-18.17a.49.49,0,0,1,.27-.65.5.5,0,0,1,.65.27c.06.14,5.54,14.12-3.73,19.42A.51.51,0,0,1,570.62,603.54Z"/>
</g>
<g opacity="0.2">
<path d="M579.85,600.78h0a.49.49,0,0,1-.47-.53c.21-3.45,3.21-5.76,3.34-5.85,5.36-3.9,3.68-15.89,3.67-16a.51.51,0,0,1,.42-.57.52.52,0,0,1,.57.43c.07.51,1.77,12.7-4.07,17,0,0-2.75,2.13-2.93,5.12A.5.5,0,0,1,579.85,600.78Z"/>
</g>
<g opacity="0.2">
<path d="M592.77,589.8a.46.46,0,0,1-.23-.06.49.49,0,0,1-.21-.67c3.49-6.57,2.27-19.58,2.26-19.71a.5.5,0,0,1,.45-.55.53.53,0,0,1,.55.45c0,.55,1.26,13.44-2.38,20.28A.49.49,0,0,1,592.77,589.8Z"/>
</g>
<ellipse cx="519.53" cy="488.94" rx="5.79" ry="3.15" transform="translate(-91.39 120.49) rotate(-12.17)" fill="#2f2e41" data-secondary="true"/>
<circle cx="520.49" cy="486.15" r="2.02" fill="#fff"/>
<path d="M513.84,481.49c-1.08,1.24-2.94,2.51-6.18,3.41a4,4,0,0,1-.41.12s-6.62.8-7.41-7.2c-2.58-26.77-17.76-61.56-17.76-61.56s-7.47-20.44-19.15-33.07c0,0-6.68-5.95-6.43-7.93,0,0,1.78-.54,6.55,2.9a37.4,37.4,0,0,1,8.58,8.68c7.43,10.43,27.87,40.67,35,67.5l8.08,21.93A5.2,5.2,0,0,1,513.84,481.49Z" fill="#2f2e41" data-secondary="true"/>
<path d="M507.66,484.9a4,4,0,0,1-.41.12s-6.62.8-7.41-7.2c-2.58-26.77-17.76-61.56-17.76-61.56s-7.47-20.44-19.15-33.07c0,0-6.68-5.95-6.43-7.93C456.5,375.26,492.38,400.69,507.66,484.9Z" opacity="0.4"/>
<path d="M356.94,393a.5.5,0,0,1-.49-.39c-.07-.3-1.55-7.29,0-12.08a.51.51,0,0,1,.63-.32.5.5,0,0,1,.32.63c-1.47,4.53,0,11.48,0,11.55a.52.52,0,0,1-.39.6Z" fill="#0071f2" data-primary="true"/>
<path d="M374.09,414.1H374a.5.5,0,0,1-.37-.61,9.37,9.37,0,0,1,4-5.56,8.18,8.18,0,0,1,6.72-.34.5.5,0,0,1,.32.63.49.49,0,0,1-.63.32,7.23,7.23,0,0,0-5.91.26,8.52,8.52,0,0,0-3.57,4.93A.5.5,0,0,1,374.09,414.1Z" fill="#0071f2" data-primary="true"/>
<path d="M379.15,414.1a.49.49,0,0,1-.49-.46c0-.08-.49-7.93,7.73-8.58h7a.5.5,0,0,1,0,1h-7c-7.19.57-6.79,7.22-6.77,7.5a.5.5,0,0,1-.46.54Z" fill="#0071f2" data-primary="true"/>
<path d="M356.25,394.77a.53.53,0,0,1-.27-.08,44.52,44.52,0,0,0-10.39-4.89.49.49,0,0,1-.34-.62.51.51,0,0,1,.62-.34,44,44,0,0,1,10.66,5,.5.5,0,0,1,.14.69A.51.51,0,0,1,356.25,394.77Z" fill="#0071f2" data-primary="true"/>
<path d="M358.88,411.81a.5.5,0,0,1-.5-.5v-7c-.22-3.07-.95-3.95-1.37-4.2a.61.61,0,0,0-.55-.08.5.5,0,0,1-.66-.25.52.52,0,0,1,.25-.67,1.66,1.66,0,0,1,1.47.14c1,.62,1.67,2.31,1.86,5v7A.5.5,0,0,1,358.88,411.81Z" fill="#0071f2" data-primary="true"/>
<path d="M355.48,401.69a.5.5,0,0,1-.43-.25c-3.84-6.91-8.88-4.53-9.1-4.43a.5.5,0,0,1-.67-.23.51.51,0,0,1,.23-.67c.06,0,6.09-2.93,10.41,4.84a.49.49,0,0,1-.19.68A.54.54,0,0,1,355.48,401.69Z" fill="#0071f2" data-primary="true"/>
<path d="M358.22,410.08a.5.5,0,0,1-.48-.35l-.74-2.39a10,10,0,0,0-2.24-4,3.28,3.28,0,0,0-2.37-1.34,1.43,1.43,0,0,0-1,.58.5.5,0,1,1-.84-.54,2.39,2.39,0,0,1,1.71-1c1-.1,2.09.45,3.21,1.64a11.08,11.08,0,0,1,2.47,4.39l.73,2.38a.49.49,0,0,1-.33.63Z" fill="#0071f2" data-primary="true"/>
<path d="M362.85,414.1l-.14,0a.49.49,0,0,1-.34-.62,12.21,12.21,0,0,0,0-6.75.5.5,0,0,1,.3-.64.51.51,0,0,1,.64.31,13,13,0,0,1,0,7.36A.49.49,0,0,1,362.85,414.1Z" fill="#0071f2" data-primary="true"/>
<path d="M360.6,413.35a.53.53,0,0,1-.31-.11.5.5,0,0,1-.08-.7,16.7,16.7,0,0,1,10.14-5.5.5.5,0,0,1,.16,1,16,16,0,0,0-9.51,5.12A.51.51,0,0,1,360.6,413.35Z" fill="#0071f2" data-primary="true"/>
<path d="M364.67,416.43h-.08a.5.5,0,0,1-.41-.58,4.64,4.64,0,0,1,3.16-3.48.5.5,0,0,1,.62.33.5.5,0,0,1-.34.63,3.63,3.63,0,0,0-2.45,2.69A.51.51,0,0,1,364.67,416.43Z" fill="#0071f2" data-primary="true"/>
<path d="M369,418.12a.41.41,0,0,1-.16,0,.49.49,0,0,1-.32-.63c.06-.19,1.54-4.67,4.07-5.77a.49.49,0,0,1,.65.25.5.5,0,0,1-.25.66c-2.12.93-3.51,5.13-3.52,5.17A.5.5,0,0,1,369,418.12Z" fill="#0071f2" data-primary="true"/>
<path d="M372.11,417.56a.49.49,0,0,1-.32-.12.51.51,0,0,1-.06-.71,32.25,32.25,0,0,0,3.58-5.65.5.5,0,0,1,.67-.21.51.51,0,0,1,.22.68,32.46,32.46,0,0,1-3.71,5.83A.49.49,0,0,1,372.11,417.56Z" fill="#0071f2" data-primary="true"/>
<path d="M389.24,418.68a.5.5,0,0,1-.5-.5,2.35,2.35,0,0,0-.83-1.91c-1.89-1.6-6.26-.9-6.31-.9l-.06,0h-.07a7.78,7.78,0,0,0-7.12,3.08.5.5,0,1,1-.83-.56,8.77,8.77,0,0,1,8-3.52c.61-.1,4.93-.68,7.06,1.13a3.34,3.34,0,0,1,1.18,2.67A.5.5,0,0,1,389.24,418.68Z" fill="#0071f2" data-primary="true"/>
<path d="M381.52,415.38a.5.5,0,0,1-.37-.84c.07-.07,6.69-7.2,14.68-2.12a.5.5,0,0,1,.15.69.49.49,0,0,1-.69.16c-7.27-4.63-13.15,1.68-13.4,2A.49.49,0,0,1,381.52,415.38Z" fill="#0071f2" data-primary="true"/>
<path d="M388,419.8a.48.48,0,0,1-.2,0c-4.1-1.73-11.16,0-11.23,0a.5.5,0,1,1-.25-1c.31-.08,7.46-1.85,11.87,0a.5.5,0,0,1-.19,1Z" fill="#0071f2" data-primary="true"/>
<g opacity="0.4">
<path d="M356.94,393a.5.5,0,0,1-.49-.39c-.07-.3-1.55-7.29,0-12.08a.51.51,0,0,1,.63-.32.5.5,0,0,1,.32.63c-1.47,4.53,0,11.48,0,11.55a.52.52,0,0,1-.39.6Z"/>
<path d="M374.09,414.1H374a.5.5,0,0,1-.37-.61,9.37,9.37,0,0,1,4-5.56,8.18,8.18,0,0,1,6.72-.34.5.5,0,0,1,.32.63.49.49,0,0,1-.63.32,7.23,7.23,0,0,0-5.91.26,8.52,8.52,0,0,0-3.57,4.93A.5.5,0,0,1,374.09,414.1Z"/>
<path d="M379.15,414.1a.49.49,0,0,1-.49-.46c0-.08-.49-7.93,7.73-8.58h7a.5.5,0,0,1,0,1h-7c-7.19.57-6.79,7.22-6.77,7.5a.5.5,0,0,1-.46.54Z"/>
<path d="M356.25,394.77a.53.53,0,0,1-.27-.08,44.52,44.52,0,0,0-10.39-4.89.49.49,0,0,1-.34-.62.51.51,0,0,1,.62-.34,44,44,0,0,1,10.66,5,.5.5,0,0,1,.14.69A.51.51,0,0,1,356.25,394.77Z"/>
<path d="M358.88,411.81a.5.5,0,0,1-.5-.5v-7c-.22-3.07-.95-3.95-1.37-4.2a.61.61,0,0,0-.55-.08.5.5,0,0,1-.66-.25.52.52,0,0,1,.25-.67,1.66,1.66,0,0,1,1.47.14c1,.62,1.67,2.31,1.86,5v7A.5.5,0,0,1,358.88,411.81Z"/>
<path d="M355.48,401.69a.5.5,0,0,1-.43-.25c-3.84-6.91-8.88-4.53-9.1-4.43a.5.5,0,0,1-.67-.23.51.51,0,0,1,.23-.67c.06,0,6.09-2.93,10.41,4.84a.49.49,0,0,1-.19.68A.54.54,0,0,1,355.48,401.69Z"/>
<path d="M358.22,410.08a.5.5,0,0,1-.48-.35l-.74-2.39a10,10,0,0,0-2.24-4,3.28,3.28,0,0,0-2.37-1.34,1.43,1.43,0,0,0-1,.58.5.5,0,1,1-.84-.54,2.39,2.39,0,0,1,1.71-1c1-.1,2.09.45,3.21,1.64a11.08,11.08,0,0,1,2.47,4.39l.73,2.38a.49.49,0,0,1-.33.63Z"/>
<path d="M362.85,414.1l-.14,0a.49.49,0,0,1-.34-.62,12.21,12.21,0,0,0,0-6.75.5.5,0,0,1,.3-.64.51.51,0,0,1,.64.31,13,13,0,0,1,0,7.36A.49.49,0,0,1,362.85,414.1Z"/>
<path d="M360.6,413.35a.53.53,0,0,1-.31-.11.5.5,0,0,1-.08-.7,16.7,16.7,0,0,1,10.14-5.5.5.5,0,0,1,.16,1,16,16,0,0,0-9.51,5.12A.51.51,0,0,1,360.6,413.35Z"/>
<path d="M364.67,416.43h-.08a.5.5,0,0,1-.41-.58,4.64,4.64,0,0,1,3.16-3.48.5.5,0,0,1,.62.33.5.5,0,0,1-.34.63,3.63,3.63,0,0,0-2.45,2.69A.51.51,0,0,1,364.67,416.43Z"/>
<path d="M369,418.12a.41.41,0,0,1-.16,0,.49.49,0,0,1-.32-.63c.06-.19,1.54-4.67,4.07-5.77a.49.49,0,0,1,.65.25.5.5,0,0,1-.25.66c-2.12.93-3.51,5.13-3.52,5.17A.5.5,0,0,1,369,418.12Z"/>
<path d="M372.11,417.56a.49.49,0,0,1-.32-.12.51.51,0,0,1-.06-.71,32.25,32.25,0,0,0,3.58-5.65.5.5,0,0,1,.67-.21.51.51,0,0,1,.22.68,32.46,32.46,0,0,1-3.71,5.83A.49.49,0,0,1,372.11,417.56Z"/>
<path d="M389.24,418.68a.5.5,0,0,1-.5-.5,2.35,2.35,0,0,0-.83-1.91c-1.89-1.6-6.26-.9-6.31-.9l-.06,0h-.07a7.78,7.78,0,0,0-7.12,3.08.5.5,0,1,1-.83-.56,8.77,8.77,0,0,1,8-3.52c.61-.1,4.93-.68,7.06,1.13a3.34,3.34,0,0,1,1.18,2.67A.5.5,0,0,1,389.24,418.68Z"/>
<path d="M381.52,415.38a.5.5,0,0,1-.37-.84c.07-.07,6.69-7.2,14.68-2.12a.5.5,0,0,1,.15.69.49.49,0,0,1-.69.16c-7.27-4.63-13.15,1.68-13.4,2A.49.49,0,0,1,381.52,415.38Z"/>
<path d="M388,419.8a.48.48,0,0,1-.2,0c-4.1-1.73-11.16,0-11.23,0a.5.5,0,1,1-.25-1c.31-.08,7.46-1.85,11.87,0a.5.5,0,0,1-.19,1Z"/>
</g>
<path d="M514.79,473.59a.5.5,0,0,1-.5-.5v-9.64a.5.5,0,0,1,1,0v9.64A.5.5,0,0,1,514.79,473.59Z" fill="#0071f2" data-primary="true"/>
<path d="M514.82,482.35h0a.5.5,0,0,1-.5-.5.47.47,0,0,1,.51-.5,1,1,0,0,0,1-.39c.53-.81,0-2.88-.54-4a.37.37,0,0,1,0-.15c-.57-5.51,3.21-6,3.25-6a.5.5,0,0,1,.55.45.5.5,0,0,1-.44.55c-.13,0-2.8.39-2.37,4.8.25.59,1.38,3.42.42,4.87A1.94,1.94,0,0,1,514.82,482.35Z" fill="#0071f2" data-primary="true"/>
<path d="M499.25,479.37a.5.5,0,0,1-.48-.37c-1.53-5.91-8.3-7.16-8.36-7.17a.5.5,0,1,1,.17-1c.3,0,7.46,1.35,9.16,7.9a.5.5,0,0,1-.36.61Z" fill="#0071f2" data-primary="true"/>
<path d="M498.32,484.63a.49.49,0,0,1-.5-.45c-.28-3-1.36-5.11-3.22-6.35-3.47-2.32-8.58-.77-8.63-.76a.49.49,0,0,1-.63-.33.5.5,0,0,1,.33-.62c.23-.07,5.61-1.7,9.48.88,2.12,1.41,3.35,3.79,3.67,7.08a.51.51,0,0,1-.46.55Z" fill="#0071f2" data-primary="true"/>
<path d="M504.63,487.67a.51.51,0,0,1-.47-.32c-3.86-9.92-10.21-8.08-10.48-8a.51.51,0,0,1-.63-.33.49.49,0,0,1,.33-.62c.07,0,7.5-2.24,11.71,8.59a.5.5,0,0,1-.28.64A.39.39,0,0,1,504.63,487.67Z" fill="#0071f2" data-primary="true"/>
<path d="M506.61,487.67a.49.49,0,0,1-.49-.42c-.52-3.13-2.5-3.82-2.58-3.85a.5.5,0,0,1-.32-.63.49.49,0,0,1,.62-.32c.11,0,2.64.87,3.27,4.64a.5.5,0,0,1-.42.57Z" fill="#0071f2" data-primary="true"/>
<path d="M512.34,484.05a.5.5,0,0,1-.5-.5v-5.73a.5.5,0,0,1,.5-.5.51.51,0,0,1,.5.5v5.73A.51.51,0,0,1,512.34,484.05Z" fill="#0071f2" data-primary="true"/>
<path d="M503.23,488.66a.51.51,0,0,1-.38-.16c-2.67-3-7.44-4.46-7.48-4.48-7.44-3.54-10.81-.27-10.95-.12a.5.5,0,0,1-.7,0,.49.49,0,0,1,0-.7c.15-.16,4-3.95,12-.1.14,0,5,1.57,7.87,4.73a.49.49,0,0,1,0,.7A.46.46,0,0,1,503.23,488.66Z" fill="#0071f2" data-primary="true"/>
<path d="M489.32,487.66h-.09a.5.5,0,0,1-.4-.58,3,3,0,0,1,1.44-1.87c1.93-1.26,5.19-1.32,9.7-.18a.5.5,0,0,1-.24,1c-5.21-1.31-7.7-.71-8.87,0a2.23,2.23,0,0,0-1.05,1.24A.49.49,0,0,1,489.32,487.66Z" fill="#0071f2" data-primary="true"/>
<path d="M490.49,489.44a.5.5,0,0,1,0-1l10.17-.78a.51.51,0,0,1,.53.46.5.5,0,0,1-.46.54l-10.16.78Z" fill="#0071f2" data-primary="true"/>
<path d="M511.17,486.45a.5.5,0,0,1-.46-.31,4.59,4.59,0,0,0-2.49-2.74.5.5,0,0,1-.33-.62.51.51,0,0,1,.62-.34,5.55,5.55,0,0,1,3.12,3.31.5.5,0,0,1-.27.66A.65.65,0,0,1,511.17,486.45Z" fill="#0071f2" data-primary="true"/>
<path d="M515.26,483.42h0a.5.5,0,0,1-.48-.51c.29-9,7.64-9.44,7.72-9.44a.48.48,0,0,1,.52.47.51.51,0,0,1-.47.53c-.27,0-6.51.45-6.77,8.47A.5.5,0,0,1,515.26,483.42Z" fill="#0071f2" data-primary="true"/>
<g opacity="0.2">
<path d="M514.79,473.59a.5.5,0,0,1-.5-.5v-9.64a.5.5,0,0,1,1,0v9.64A.5.5,0,0,1,514.79,473.59Z"/>
<path d="M514.82,482.35h0a.5.5,0,0,1-.5-.5.47.47,0,0,1,.51-.5,1,1,0,0,0,1-.39c.53-.81,0-2.88-.54-4a.37.37,0,0,1,0-.15c-.57-5.51,3.21-6,3.25-6a.5.5,0,0,1,.55.45.5.5,0,0,1-.44.55c-.13,0-2.8.39-2.37,4.8.25.59,1.38,3.42.42,4.87A1.94,1.94,0,0,1,514.82,482.35Z"/>
<path d="M499.25,479.37a.5.5,0,0,1-.48-.37c-1.53-5.91-8.3-7.16-8.36-7.17a.5.5,0,1,1,.17-1c.3,0,7.46,1.35,9.16,7.9a.5.5,0,0,1-.36.61Z"/>
<path d="M498.32,484.63a.49.49,0,0,1-.5-.45c-.28-3-1.36-5.11-3.22-6.35-3.47-2.32-8.58-.77-8.63-.76a.49.49,0,0,1-.63-.33.5.5,0,0,1,.33-.62c.23-.07,5.61-1.7,9.48.88,2.12,1.41,3.35,3.79,3.67,7.08a.51.51,0,0,1-.46.55Z"/>
<path d="M504.63,487.67a.51.51,0,0,1-.47-.32c-3.86-9.92-10.21-8.08-10.48-8a.51.51,0,0,1-.63-.33.49.49,0,0,1,.33-.62c.07,0,7.5-2.24,11.71,8.59a.5.5,0,0,1-.28.64A.39.39,0,0,1,504.63,487.67Z"/>
<path d="M506.61,487.67a.49.49,0,0,1-.49-.42c-.52-3.13-2.5-3.82-2.58-3.85a.5.5,0,0,1-.32-.63.49.49,0,0,1,.62-.32c.11,0,2.64.87,3.27,4.64a.5.5,0,0,1-.42.57Z"/>
<path d="M512.34,484.05a.5.5,0,0,1-.5-.5v-5.73a.5.5,0,0,1,.5-.5.51.51,0,0,1,.5.5v5.73A.51.51,0,0,1,512.34,484.05Z"/>
<path d="M503.23,488.66a.51.51,0,0,1-.38-.16c-2.67-3-7.44-4.46-7.48-4.48-7.44-3.54-10.81-.27-10.95-.12a.5.5,0,0,1-.7,0,.49.49,0,0,1,0-.7c.15-.16,4-3.95,12-.1.14,0,5,1.57,7.87,4.73a.49.49,0,0,1,0,.7A.46.46,0,0,1,503.23,488.66Z"/>
<path d="M489.32,487.66h-.09a.5.5,0,0,1-.4-.58,3,3,0,0,1,1.44-1.87c1.93-1.26,5.19-1.32,9.7-.18a.5.5,0,0,1-.24,1c-5.21-1.31-7.7-.71-8.87,0a2.23,2.23,0,0,0-1.05,1.24A.49.49,0,0,1,489.32,487.66Z"/>
<path d="M490.49,489.44a.5.5,0,0,1,0-1l10.17-.78a.51.51,0,0,1,.53.46.5.5,0,0,1-.46.54l-10.16.78Z"/>
<path d="M511.17,486.45a.5.5,0,0,1-.46-.31,4.59,4.59,0,0,0-2.49-2.74.5.5,0,0,1-.33-.62.51.51,0,0,1,.62-.34,5.55,5.55,0,0,1,3.12,3.31.5.5,0,0,1-.27.66A.65.65,0,0,1,511.17,486.45Z"/>
<path d="M515.26,483.42h0a.5.5,0,0,1-.48-.51c.29-9,7.64-9.44,7.72-9.44a.48.48,0,0,1,.52.47.51.51,0,0,1-.47.53c-.27,0-6.51.45-6.77,8.47A.5.5,0,0,1,515.26,483.42Z"/>
</g>
</svg>