 <!DOCTYPE svg PUBLIC "-//W3C//DTD SVG 1.1//EN" "http://www.w3.org/Graphics/SVG/1.1/DTD/svg11.dtd">
<svg id="b5c589e3-cbad-419b-aa0a-c4996ae3eece" data-name="Layer 1" xmlns="http://www.w3.org/2000/svg" width="865.76" height="682.89" viewBox="0 0 865.76 682.89">
<defs>
<style xmlns="http://www.w3.org/1999/xhtml">*, ::after, ::before { box-sizing: border-box; }
img, svg { vertical-align: middle; }
</style>
<style xmlns="http://www.w3.org/1999/xhtml">*, body, html { -webkit-font-smoothing: antialiased; }
img, svg { max-width: 100%; }
</style>
</defs>
<g id="b257996d-6ae3-4327-9b97-68d0e00afe26" data-name="freepik--background-complete--inject-26">
<rect x="1.14" y="585.15" width="863.48" height="0.43" fill="#ebebeb"/>
<rect x="720.9" y="612.94" width="57.2" height="0.43" fill="#ebebeb"/>
<rect x="558.14" y="617.64" width="15.01" height="0.43" fill="#ebebeb"/>
<rect x="686.04" y="596.91" width="33.14" height="0.43" fill="#ebebeb"/>
<rect x="91.74" y="599.82" width="74.59" height="0.43" fill="#ebebeb"/>
<rect x="181.71" y="599.82" width="10.93" height="0.43" fill="#ebebeb"/>
<rect x="228.19" y="607.1" width="161.78" height="0.43" fill="#ebebeb"/>
<path d="M410.43,508.13H77a9.86,9.86,0,0,1-9.84-9.86V29.52A9.86,9.86,0,0,1,77,19.75H410.43a9.85,9.85,0,0,1,9.86,9.86h0V498.27A9.85,9.85,0,0,1,410.43,508.13ZM77,20.1a9.41,9.41,0,0,0-9.41,9.42V498.27A9.43,9.43,0,0,0,77,507.7H410.43a9.45,9.45,0,0,0,9.43-9.43V29.52a9.43,9.43,0,0,0-9.43-9.42Z" fill="#ebebeb"/>
<path d="M784,508.13H450.51a9.88,9.88,0,0,1-9.86-9.86V29.52a9.89,9.89,0,0,1,9.86-9.77H784a9.85,9.85,0,0,1,9.82,9.77V498.27A9.86,9.86,0,0,1,784,508.13ZM450.51,20.1a9.44,9.44,0,0,0-9.43,9.42V498.27a9.45,9.45,0,0,0,9.43,9.43H784a9.45,9.45,0,0,0,9.43-9.43V29.52A9.44,9.44,0,0,0,784,20.1Z" fill="#ebebeb"/>
<path d="M635.66,584.64H84.21s17.1-26.2,31.19-47.2c9-13.28,16.8-24.49,18.49-25.7,4.36-3.11,15.55-5,20.5-16.49s5-16.42,12.09-29.46,34.54-48.36,37.39-48.36,27.63-38.58,37-41.69,10.36-12.41,20.53-26.38,43.9-58.72,58.18-59.74,49.26,66.21,62.78,71.22,28.51-16.77,33.29-11.48S430.14,374.5,440,390.65s19.81,23.59,20.72,29.7,21,16.87,31.09,16.87c3.45,0,10.72,7.53,19,17.51h0c16.11,19.5,35.65,48.27,35.65,48.27,2.67,3.89,7.35-1.86,15.42,1.23S635.66,584.64,635.66,584.64Z" fill="#f0f0f0"/>
<path d="M635.66,584.64H84.21s17.1-26.2,31.19-47.2c8.22-9.07,14.82-15.86,17.27-17.27,9-5.18,16-16.94,21.4-18.45a43.1,43.1,0,0,0,11.86-6.45s8.41-26.34,10.36-31,27.34-33.6,33-35.66,9.36,4.79,12.75,8.52,29.35,50.23,29.35,50.23l16.46-10.93s9.57-12.29,13.21-18.44,7.17-4.79,7.17-4.79,17.27-19.8,18.1-25.14,11.4-2.87,12.09-2.87,17.82,8.21,17.82,8.21S318.35,411,310.79,417s-50.5,47.33-50.5,47.33L236,433.39l11.48-16.46s15.72-19.76,17.08-22.45,28-40.31,28.43-42.36,22.81-19.81,25.63-18.46,8.8,5.49,15.54,14.4,9.67,14.32,16.68,25.8,12.8,14.47,15.11,17.36,27.89,30.39,28.69,31.25l-19.43-31.25s9.62-9,15.84-15.18,8.13,2,16.28,8.2,9.6,10.24,15.75,19.7,35.26,43.18,35.26,43.18-4.52,7.51-9.42,15.13-8.21,19.93-8.21,19.93l8.64-5s18.22-17.77,21.39-22.32,11.85-13.2,19.41-12.53c7.29.68,19.69,11.7,20.57,12.47h0c16.12,19.5,35.65,48.27,35.65,48.27,2.67,3.89,7.35-1.86,15.42,1.23S635.66,584.64,635.66,584.64Z" fill="#e6e6e6"/>
<path d="M275.82,197.9a15.23,15.23,0,0,1,15.23-15.23,15.06,15.06,0,0,1,4.37.64,31.58,31.58,0,0,1-.35-4.66,32.15,32.15,0,0,1,32.05-32.26,31.5,31.5,0,0,1,6.13.57,28.16,28.16,0,0,1,52.26,14.24H386a26,26,0,0,1,0,52H290.62A15.2,15.2,0,0,1,275.82,197.9Z" fill="#ebebeb"/>
<path d="M131.13,128.91a9.71,9.71,0,0,1,12.5-9.31,23,23,0,0,1-.2-3A20.58,20.58,0,0,1,164,96h0a19.92,19.92,0,0,1,3.78.36,18,18,0,0,1,33.37,9.09h.31a16.59,16.59,0,0,1,0,33.17H140.58A9.69,9.69,0,0,1,131.13,128.91Z" fill="#ebebeb"/>
<path d="M625.21,248.35a5.94,5.94,0,0,1,5.94-5.94h0a5.61,5.61,0,0,1,1.73.24,12.69,12.69,0,0,1,10.83-14.32,11.48,11.48,0,0,1,1.66-.12,12,12,0,0,1,2.31.22A11,11,0,0,1,668.13,234h.19a10.15,10.15,0,0,1,0,20.3H631A5.94,5.94,0,0,1,625.21,248.35Z" fill="#ebebeb"/>
<path d="M681.56,108.93a6,6,0,0,1,5.93-6h0a6.28,6.28,0,0,1,1.73.24A12.56,12.56,0,0,1,699.88,89a11.68,11.68,0,0,1,1.87-.13,13,13,0,0,1,2.33.22,11,11,0,0,1,20.43,5.56h.23a10.16,10.16,0,0,1,0,20.31H687.43A5.94,5.94,0,0,1,681.56,108.93Z" fill="#ebebeb"/>
<path d="M780.15,584.62H203.85s18.22-40.59,27.53-36.68,38.72-20.47,43-30.28,19,3.2,38.82-.95S362,448.83,371,452.13s34.92,62.93,41.08,65.14,12.09-17.12,20.73-18.77,15.4,13.24,17.08,17.39,10,17.39,10,17.39,13.17-4.15,17.35-7.46,24.8-44.7,29.15-50.59,13-10.67,26.17-8.2,18.34-20.72,32.81-34.83,21.91-9.05,26.94-9.73,32.24-46.52,38.86-42.63,36.4,59.87,41.79,66.47,17.82-4.13,19.29,0,24.57,36.44,24.57,36.44,10.36-.83,16.63,4.14c1.06.83,3.08,4.16,5.72,9.12l.53,1C752.9,522.29,780.15,584.62,780.15,584.62Z" fill="#ebebeb"/>
<path d="M780.15,584.62H504.27c-8.25-12.09-21.81-32.16-21.36-33.57.61-2,26.06-52.33,38.18-59.19s21.18-1.24,21.18-1.24l-9.79,26.63c.72-1,23.79-30.67,29.92-35.13s4-8.25,2.92-10.13-14.61,3-15.32,3.23c1-1.09,28-28.4,32.82-31s14.78-2.65,14.78-2.65,18.11-23.91,24.33-32.81,22,4.27,25,14.49S660.44,444,660.44,444l7.46,21.12S645.23,448.33,641,449.55a92.75,92.75,0,0,1-14,1.87s-4.49-13-10.06-14.91-17.4,6.91-26.1,18.64c-11,14.85,14.92-16.77,27.34,0s14.49,11.17,20.89,6.82,28.76,30.45,33.73,35.4,14.61-11.79,14.61-11.79-9.62,8.63-8.37,2.48,1.72-28.23,11-29.18S708.81,485,708.81,485l-9.87,13.33,26.71-10.86,13.4,8.51.54,1C752.9,522.29,780.15,584.62,780.15,584.62Z" fill="#e0e0e0"/>
<path d="M212.64,584.62c3.6-6,6.74-12,6-13-1.59-2.28,15.87-9.53,19.72-11.85s7.92-3.9,17.94-3.31,6.75,1.28,9.43,3.31,3.14,16.53,3.14,16.53,5.36-9.86,5.48-16.53-8.64-11.79-8.64-11.79,2.3-3.9,4.34-6.69,11.62-17.07,17.84-19,17.37,3.11,22.36,6.2,5,3.11,9.31,5.58,3.11,5,5,13.81,5-.79,10.36,3.11S346,563.74,346,563.74s-1.61-11-5.5-15.78-5.61-17.57-5.61-17.57l5.61-13.11s12.59-21.65,20.11-31.6,7.39-5.58,16.21,3.11,7.93,7.44,13,17.61,21.45,34.89,21.45,34.89l-.5-9.64S422,519.86,427,523.59s8.64,11.79,8.64,11.79l-5.57,5.91s-6.8,13.33-9.68,15.16,7.23-2.45,15.3-5.37S450,537.84,455,541.29c3.61,2.49,25.2,29.08,36.7,43.36Z" fill="#e0e0e0"/>
</g>
<g id="e00fc330-4172-48f3-9239-dc1e4a4c213f" data-name="freepik--Shadow--inject-26">
<ellipse id="bb3402cf-caec-4033-a73e-d9d243b267c9" data-name="freepik--path--inject-26" cx="432.88" cy="643.59" rx="334.84" ry="19.55" fill="#f5f5f5"/>
</g>
<path d="M517.33,644.42c3.45-4.88,12.54-17.15,16.92-15.14,7.1,3.23,12.37-14.51,20.23-10.36,2.76,1.46,1.4,6.21,3.14,8.13,2.88,3.14,6.54,2.54,10,4.27,6.17,3.07,8.74,7.06,11.68,13Z" fill="#2f2e41" data-secondary="true"/>
<path d="M523,640.92s4.21-24.49,1.29-28.07-3.45,13.35-3.45,13.35-9.79-35.36-16-35.55,7.42,30.68,7.42,30.68-26.77-43.74-34.54-39.72,28,42.87,28,42.87-19.58-16.86-23.9-12.09,21.87,19.34,21.87,19.34-11.49-2.59-11.47,1.24S511.53,643.08,523,640.92Z" fill="#0071f2" data-primary="true"/>
<path d="M523,640.92s4.21-24.49,1.29-28.07-3.45,13.35-3.45,13.35-9.79-35.36-16-35.55,7.42,30.68,7.42,30.68-26.77-43.74-34.54-39.72,28,42.87,28,42.87-19.58-16.86-23.9-12.09,21.87,19.34,21.87,19.34-11.49-2.59-11.47,1.24S511.53,643.08,523,640.92Z" fill="#fff" opacity="0.4" style="isolation:isolate"/>
<path d="M526.88,637.41S547,633.77,549,630.5s-11.29,1.13-11.29,1.13,24.59-17.57,23-22.45S539,623.6,539,623.6s26.28-33.08,20.93-38-25.15,33.83-25.15,33.83,7.51-19.89,2.61-21.89-8.79,22.26-8.79,22.26-1.24-9.61-4.2-8.52S522,629.14,526.88,637.41Z" fill="#0071f2" data-primary="true"/>
<path d="M526.88,637.41S547,633.77,549,630.5s-11.29,1.13-11.29,1.13,24.59-17.57,23-22.45S539,623.6,539,623.6s26.28-33.08,20.93-38-25.15,33.83-25.15,33.83,7.51-19.89,2.61-21.89-8.79,22.26-8.79,22.26-1.24-9.61-4.2-8.52S522,629.14,526.88,637.41Z" fill="#fff" opacity="0.4" style="isolation:isolate"/>
<path d="M528.4,634.73s19.43-19.46,19.08-24.55-11.62,9.89-11.62,9.89,13.69-38.25,8.15-42.41-12.85,32.52-12.85,32.52,3.68-56.68-6-58-2,56.66-2,56.66-7-27.73-13.92-26.18,7.35,31.35,7.35,31.35-8.75-9.68-11.17-6.2S516.6,629.36,528.4,634.73Z" fill="#0071f2" data-primary="true"/>
<path d="M528.4,634.73s19.43-19.46,19.08-24.55-11.62,9.89-11.62,9.89,13.69-38.25,8.15-42.41-12.85,32.52-12.85,32.52,3.68-56.68-6-58-2,56.66-2,56.66-7-27.73-13.92-26.18,7.35,31.35,7.35,31.35-8.75-9.68-11.17-6.2S516.6,629.36,528.4,634.73Z" fill="#fff" opacity="0.5" style="isolation:isolate"/>
<path d="M501.48,644.42c4.24-4.25,9-8.22,11.17-7.23,5.65,2.57,9.84-11.56,16.11-8.22,2.21,1.19,1.12,5,2.52,6.49,2.28,2.5,5.18,2,8,3.45a11.76,11.76,0,0,1,5.3,5.56Z" fill="#2f2e41" data-secondary="true"/>
<path d="M501.48,644.42c4.24-4.25,9-8.22,11.17-7.23,5.65,2.57,9.84-11.56,16.11-8.22,2.21,1.19,1.12,5,2.52,6.49,2.28,2.5,5.18,2,8,3.45a11.76,11.76,0,0,1,5.3,5.56Z" fill="#fff" opacity="0.2" style="isolation:isolate"/>
<path d="M634.49,626.27s9.74-35.68,17.71-47-4.76,25.53-4.76,25.53,11.07-23.49,14.54-22.75-11.5,26.13-11.5,26.13,11.36-20.31,16.33-17-14.5,24.18-14.5,24.18,17.49-13.11,19.22-9.47-16.92,15.3-16.92,15.3,17.77-3.61,19.63,2.66-17.68,5.32-17.68,5.32,9.05-.4,10.76,6.13S643.57,639.5,634.49,626.27Z" fill="#0071f2" data-primary="true"/>
<path d="M634.49,626.27s9.74-35.68,17.71-47-4.76,25.53-4.76,25.53,11.07-23.49,14.54-22.75-11.5,26.13-11.5,26.13,11.36-20.31,16.33-17-14.5,24.18-14.5,24.18,17.49-13.11,19.22-9.47-16.92,15.3-16.92,15.3,17.77-3.61,19.63,2.66-17.68,5.32-17.68,5.32,9.05-.4,10.76,6.13S643.57,639.5,634.49,626.27Z" fill="#fff" opacity="0.4" style="isolation:isolate"/>
<path d="M629.53,636.58s13.19-25.4,10.52-29.86-8.31,9.95-8.31,9.95,10.17-32.55,6.51-36.14-10.36,28-10.36,28,3.57-37,0-39-5.3,33.52-5.3,33.52-2.44-37.54-6.91-37,0,33.38,0,33.38-10.1-25-14.59-24,7.22,25.91,7.22,25.91-11.89-15-15.32-11.49,10.64,20,10.64,20-12.09-7.51-15.18-3.77,12.64,11.83,12.64,11.83-12.85,3.34-12,6.55,12,2.76,12,2.76S605.87,649.93,629.53,636.58Z" fill="#0071f2" data-primary="true"/>
<path d="M629.53,636.58s13.19-25.4,10.52-29.86-8.31,9.95-8.31,9.95,10.17-32.55,6.51-36.14-10.36,28-10.36,28,3.57-37,0-39-5.3,33.52-5.3,33.52-2.44-37.54-6.91-37,0,33.38,0,33.38-10.1-25-14.59-24,7.22,25.91,7.22,25.91-11.89-15-15.32-11.49,10.64,20,10.64,20-12.09-7.51-15.18-3.77,12.64,11.83,12.64,11.83-12.85,3.34-12,6.55,12,2.76,12,2.76S605.87,649.93,629.53,636.58Z" fill="#fff" opacity="0.5" style="isolation:isolate"/>
<path d="M657.9,575.83a2,2,0,1,1-2-2,2,2,0,0,1,2,2Z" fill="#263238"/>
<path d="M633,628.66h-.09a.48.48,0,0,1-.38-.54v0c0-.41,7.5-40.84,25.24-58.28a.48.48,0,0,1,.67.13.5.5,0,0,1,0,.56c-17.49,17.27-24.88,57.35-24.95,57.75A.48.48,0,0,1,633,628.66Z" fill="#263238"/>
<path d="M660.44,570.16a2.35,2.35,0,1,1-2.35-2.34h0A2.35,2.35,0,0,1,660.44,570.16Z" fill="#263238"/>
<path d="M652.91,589a2,2,0,1,1-2-2,2,2,0,0,1,2,2Z" fill="#263238"/>
<path d="M644,583.24a2,2,0,1,1-2-2,2,2,0,0,1,2,2Z" fill="#263238"/>
<path d="M650.25,596.31a2,2,0,1,1-2-2,2,2,0,0,1,2,2Z" fill="#263238"/>
<path d="M641.1,593.44a2,2,0,1,1-2-2,2,2,0,0,1,2,2Z" fill="#263238"/>
<circle cx="649.06" cy="572.51" r="2" fill="#263238"/>
<path d="M648.6,582.74V572.37a.47.47,0,0,1,.44-.48h0a.49.49,0,0,1,.49.48v9.07l8.42-2.09a.48.48,0,0,1,.56.4.47.47,0,0,1-.32.53Z" fill="#263238"/>
<path d="M644.31,591.37l-2.73-8a.48.48,0,1,1,.9-.31l2.45,7.22,5.88-1.33a.48.48,0,0,1,.51.45.49.49,0,0,1-.31.48Z" fill="#263238"/>
<path d="M640.89,599.8l-2.24-6.2a.49.49,0,0,1,.29-.61.47.47,0,0,1,.6.27h0l1.91,5.18,6.6-2.68a.5.5,0,0,1,.58.37.51.51,0,0,1-.22.52Z" fill="#263238"/>
<path d="M609,639.21a.47.47,0,0,1-.38-.19c-9.38-12.95-21-27.08-35.82-33.7a.48.48,0,0,1-.17-.66.49.49,0,0,1,.55-.22c15.06,6.72,26.75,21,36.27,34a.46.46,0,0,1-.08.65l0,0A.54.54,0,0,1,609,639.21Z" fill="#263238"/>
<path d="M570.87,605.7a2.35,2.35,0,1,0,4.51-1.3,2.35,2.35,0,1,0-4.51,1.3Z" fill="#263238"/>
<path d="M572.44,615.12a2.35,2.35,0,1,0,1.38-3,2.35,2.35,0,0,0-1.38,3Z" fill="#263238"/>
<path d="M584.53,620.73a2,2,0,1,0,1.17-2.59A2,2,0,0,0,584.53,620.73Z" fill="#263238"/>
<path d="M590.81,612.2a2,2,0,1,0,1.18-2.58h0A2,2,0,0,0,590.81,612.2Z" fill="#263238"/>
<path d="M589.57,626.62a2,2,0,1,0,1.18-2.58,2,2,0,0,0-1.18,2.58Z" fill="#263238"/>
<path d="M597.13,620.73a2,2,0,1,0,1.18-2.58h0A2,2,0,0,0,597.13,620.73Z" fill="#263238"/>
<path d="M580.47,604.62a2,2,0,1,0,1.17-2.58,2,2,0,0,0-1.17,2.58Z" fill="#263238"/>
<path d="M576.5,614.53a.45.45,0,0,1-.47-.42.48.48,0,0,1,.41-.53l8.64-1-3.18-8.5a.45.45,0,0,1,.24-.59h0a.46.46,0,0,1,.6.27h0l3.61,9.64-9.84,1.14Z" fill="#263238"/>
<path d="M586.58,620.9a.48.48,0,0,1,0-.95l6-.83-.23-7.6a.51.51,0,0,1,.47-.5.49.49,0,0,1,.48.47l.26,8.46-6.8.95Z" fill="#263238"/>
<path d="M599.55,626.62l-8.12-.23a.48.48,0,0,1-.46-.48.5.5,0,0,1,.5-.47l7.11.19V620a.47.47,0,0,1,.45-.49h0a.47.47,0,0,1,.48.45v0Z" fill="#263238"/>
<path d="M570.83,644.42h106.9s-27-8.82-27.63-11.31-.66-4.23-3.94-6.42-7.82-3.46-9.08-5.89a35.52,35.52,0,0,0-6.48-7.36c-1.35-1.12-17.37,6.91-17.56,7.13s-4.65,8.95-6.17,10.9-12.09-.43-14.52,1.64-10.92,7.41-10.92,7.41S577.2,640,570.83,644.42Z" fill="#2f2e41" data-secondary="true"/>
<path d="M570.83,644.42h106.9s-27-8.82-27.63-11.31-.66-4.23-3.94-6.42-7.82-3.46-9.08-5.89a35.52,35.52,0,0,0-6.48-7.36c-1.35-1.12-17.37,6.91-17.56,7.13s-4.65,8.95-6.17,10.9-12.09-.43-14.52,1.64-10.92,7.41-10.92,7.41S577.2,640,570.83,644.42Z" fill="#fff" opacity="0.1" style="isolation:isolate"/>
<path d="M351.72,346.14a13.54,13.54,0,0,0-7.69-1.33c-1.73-1.84-.67-4.9.74-7s3.16-4.58,2.39-7c-1.18-3.67-6.43-3.45-10.16-2.4-1.57-2.16-1.73-5-2.62-7.51s-3.13-5.06-5.74-4.54-3.78,3.45-6.18,4.18c-2.78.88-5.42-1.44-7.79-3.14a8.24,8.24,0,0,0-.95-.57h0c-.12-7.81,7.38-7.14,13.61-8.64,4.85-1.19-9.13-12.66.5-17.42a8.76,8.76,0,0,0,4.54-3.7,5.66,5.66,0,0,0-2.69-6.74A13.53,13.53,0,0,0,322,279c-1.72-1.85-.67-4.92.75-7s3.16-4.56,2.38-7c-1.17-3.68-6.42-3.45-10.15-2.4-1.58-2.16-1.73-5-2.63-7.51s-3.13-5.08-5.75-4.54-3.76,3.45-6.17,4.16c-2.78.9-5.42-1.43-7.78-3.14s-6.34-2.59-7.67,0c-.81,1.55-.11,3.57-1,5.18-1.45,2.66-5.49,1.38-8-.23s-6.56-2.93-8.08-.33a10.93,10.93,0,0,0-.76,2.68,6.81,6.81,0,0,1-.83,1.87c-.6-1.73-.9-3.56-1.49-5.29-.88-2.52-3.12-5.06-5.75-4.54s-3.76,3.45-6.16,4.18c-2.78.88-5.42-1.43-7.79-3.14s-6.34-2.59-7.68,0c-.8,1.55,0,3.57-.94,5.18a2.78,2.78,0,0,1-.74.86q-1.26-.06-2.52,0c-1.73-1.85-.67-4.92.74-7.05s3.16-4.57,2.38-7c-1.19-3.67-6.42-3.45-10.15-2.4-1.57-2.16-1.73-5-2.62-7.51s-3.11-5.25-5.7-4.77-3.77,3.46-6.17,4.18c-2.78.88-5.42-1.43-7.79-3.14s-6.34-2.59-7.68,0c-.8,1.55,0,3.58-.93,5.18-1.47,2.64-5.5,1.38-8.07-.22s-6.54-3-8.08-.33a10.89,10.89,0,0,0-.74,2.68c-.9,3.45-4.36,5.31-6.91,7.66s-4.53,6.74-2,9.16c1.26,1.19,3.35,1.55,4.06,3.14.88,2-1.07,4-2.61,5.49a8.65,8.65,0,0,0-1,9,7.56,7.56,0,0,1-2.74,1.9c-2.78.88-5.43-1.44-7.79-3.15s-6.34-2.59-7.69,0c-.79,1.56,0,3.58-.93,5.1-1.47,2.66-5.49,1.38-8.06-.23s-6.57-2.93-8.09-.31A10.74,10.74,0,0,0,134,278c-.9,3.46-4.35,5.34-6.91,7.67s-4.5,6.74-1.95,9.15c1.21,1.16,3.18,1.54,4,3-2-.62-4.17-.48-5.08,1.28s0,3.58-.93,5.18c-1.45,2.66-5.49,1.38-8.07-.22s-6.54-2.94-8.06-.33a10.51,10.51,0,0,0-.76,2.68c-.9,3.45-4.35,5.32-6.91,7.66s-4.53,6.74-2,9.16c1.26,1.19,3.35,1.55,4.06,3.14.88,2-1.07,4-2.61,5.49-2.57,2.56-2.54,9.57,1.23,11.21,1.59.69,3.85.76,4.35,2.42s-1,2.76-1.92,4a7.26,7.26,0,0,0,2.06,10,7.51,7.51,0,0,0,1,.53c.9.35,2,.61,2.39,1.49a3.41,3.41,0,0,1,0,2,10.71,10.71,0,0,0,0,3.91,1.73,1.73,0,0,0,.57,1.19,1.77,1.77,0,0,0,1.17.24c5.18-.17,7.65-2.21,11.19,2.11a3.67,3.67,0,0,0,1.18,1.07,3.47,3.47,0,0,0,1.46.26c3.63,0,5.82-2.42,9.09-3.08,4.52-.93,5.66,1.35,9.83,2.94,6.56,2.5,9.49.43,10.36-4a20,20,0,0,0,.27-3.79,6.59,6.59,0,0,1,1.82-5.18h.12c3.45,0,5.51-2.07,8.42-2.9l1.85-.33c3.46-.31,4.87,1.73,8.64,3.1a12.41,12.41,0,0,0,5.51,1c.67,1.92-1.18,3.84-2.66,5.3-2.58,2.54-2.54,9.57,1.24,11.21,1.57.69,3.83.76,4.33,2.42s-1,2.76-1.91,4a7.24,7.24,0,0,0,2,10,8.44,8.44,0,0,0,1,.54c.9.36,2,.62,2.4,1.5a3.38,3.38,0,0,1,0,2,11.22,11.22,0,0,0,0,3.92,1.86,1.86,0,0,0,.57,1.19,1.93,1.93,0,0,0,1.17.24c5.27-.17,7.66-2.21,11.2,2.11a3.86,3.86,0,0,0,1.17,1.07,3.44,3.44,0,0,0,1.49.24c3.62,0,5.8-2.4,9.06-3.07,4.53-.92,5.67,1.36,9.85,2.95,6.54,2.49,9.48.43,10.36-4a18.65,18.65,0,0,0,.27-3.8c-.12-7.79,7.38-7.13,13.61-8.64a1.28,1.28,0,0,0,1-.79h.39c3.63,0,5.81-2.4,9.07-3.06,4.52-.93,5.68,1.35,9.84,2.94,6.57,2.49,9.48.43,10.36-4a16.74,16.74,0,0,0,.28-3.8c-.09-6.06,4.42-7,9.36-7.84a6.93,6.93,0,0,0,4.09,5.37c.9.34,2,.62,2.4,1.5a3.38,3.38,0,0,1,0,2,10.76,10.76,0,0,0,0,3.92,1.86,1.86,0,0,0,.57,1.19,1.74,1.74,0,0,0,1.18.22c5.18-.15,7.65-2.21,11.19,2.11a3.93,3.93,0,0,0,1.17,1.09,3.62,3.62,0,0,0,1.49.24c3.63,0,5.8-2.4,9.07-3.07,4.52-.94,5.66,1.36,9.82,2.93,6.56,2.51,9.5.43,10.36-4a19.14,19.14,0,0,0,.28-3.78c-.12-7.81,7.37-7.13,13.61-8.64,4.87-1.19-9.14-12.64.5-17.4a8.75,8.75,0,0,0,4.54-3.72A5.64,5.64,0,0,0,351.72,346.14Z" fill="#0071f2" data-primary="true"/>
<path d="M351.72,346.14a13.54,13.54,0,0,0-7.69-1.33c-1.73-1.84-.67-4.9.74-7s3.16-4.58,2.39-7c-1.18-3.67-6.43-3.45-10.16-2.4-1.57-2.16-1.73-5-2.62-7.51s-3.13-5.06-5.74-4.54-3.78,3.45-6.18,4.18c-2.78.88-5.42-1.44-7.79-3.14a8.24,8.24,0,0,0-.95-.57h0c-.12-7.81,7.38-7.14,13.61-8.64,4.85-1.19-9.13-12.66.5-17.42a8.76,8.76,0,0,0,4.54-3.7,5.66,5.66,0,0,0-2.69-6.74A13.53,13.53,0,0,0,322,279c-1.72-1.85-.67-4.92.75-7s3.16-4.56,2.38-7c-1.17-3.68-6.42-3.45-10.15-2.4-1.58-2.16-1.73-5-2.63-7.51s-3.13-5.08-5.75-4.54-3.76,3.45-6.17,4.16c-2.78.9-5.42-1.43-7.78-3.14s-6.34-2.59-7.67,0c-.81,1.55-.11,3.57-1,5.18-1.45,2.66-5.49,1.38-8-.23s-6.56-2.93-8.08-.33a10.93,10.93,0,0,0-.76,2.68,6.81,6.81,0,0,1-.83,1.87c-.6-1.73-.9-3.56-1.49-5.29-.88-2.52-3.12-5.06-5.75-4.54s-3.76,3.45-6.16,4.18c-2.78.88-5.42-1.43-7.79-3.14s-6.34-2.59-7.68,0c-.8,1.55,0,3.57-.94,5.18a2.78,2.78,0,0,1-.74.86q-1.26-.06-2.52,0c-1.73-1.85-.67-4.92.74-7.05s3.16-4.57,2.38-7c-1.19-3.67-6.42-3.45-10.15-2.4-1.57-2.16-1.73-5-2.62-7.51s-3.11-5.25-5.7-4.77-3.77,3.46-6.17,4.18c-2.78.88-5.42-1.43-7.79-3.14s-6.34-2.59-7.68,0c-.8,1.55,0,3.58-.93,5.18-1.47,2.64-5.5,1.38-8.07-.22s-6.54-3-8.08-.33a10.89,10.89,0,0,0-.74,2.68c-.9,3.45-4.36,5.31-6.91,7.66s-4.53,6.74-2,9.16c1.26,1.19,3.35,1.55,4.06,3.14.88,2-1.07,4-2.61,5.49a8.65,8.65,0,0,0-1,9,7.56,7.56,0,0,1-2.74,1.9c-2.78.88-5.43-1.44-7.79-3.15s-6.34-2.59-7.69,0c-.79,1.56,0,3.58-.93,5.1-1.47,2.66-5.49,1.38-8.06-.23s-6.57-2.93-8.09-.31A10.74,10.74,0,0,0,134,278c-.9,3.46-4.35,5.34-6.91,7.67s-4.5,6.74-1.95,9.15c1.21,1.16,3.18,1.54,4,3-2-.62-4.17-.48-5.08,1.28s0,3.58-.93,5.18c-1.45,2.66-5.49,1.38-8.07-.22s-6.54-2.94-8.06-.33a10.51,10.51,0,0,0-.76,2.68c-.9,3.45-4.35,5.32-6.91,7.66s-4.53,6.74-2,9.16c1.26,1.19,3.35,1.55,4.06,3.14.88,2-1.07,4-2.61,5.49-2.57,2.56-2.54,9.57,1.23,11.21,1.59.69,3.85.76,4.35,2.42s-1,2.76-1.92,4a7.26,7.26,0,0,0,2.06,10,7.51,7.51,0,0,0,1,.53c.9.35,2,.61,2.39,1.49a3.41,3.41,0,0,1,0,2,10.71,10.71,0,0,0,0,3.91,1.73,1.73,0,0,0,.57,1.19,1.77,1.77,0,0,0,1.17.24c5.18-.17,7.65-2.21,11.19,2.11a3.67,3.67,0,0,0,1.18,1.07,3.47,3.47,0,0,0,1.46.26c3.63,0,5.82-2.42,9.09-3.08,4.52-.93,5.66,1.35,9.83,2.94,6.56,2.5,9.49.43,10.36-4a20,20,0,0,0,.27-3.79,6.59,6.59,0,0,1,1.82-5.18h.12c3.45,0,5.51-2.07,8.42-2.9l1.85-.33c3.46-.31,4.87,1.73,8.64,3.1a12.41,12.41,0,0,0,5.51,1c.67,1.92-1.18,3.84-2.66,5.3-2.58,2.54-2.54,9.57,1.24,11.21,1.57.69,3.83.76,4.33,2.42s-1,2.76-1.91,4a7.24,7.24,0,0,0,2,10,8.44,8.44,0,0,0,1,.54c.9.36,2,.62,2.4,1.5a3.38,3.38,0,0,1,0,2,11.22,11.22,0,0,0,0,3.92,1.86,1.86,0,0,0,.57,1.19,1.93,1.93,0,0,0,1.17.24c5.27-.17,7.66-2.21,11.2,2.11a3.86,3.86,0,0,0,1.17,1.07,3.44,3.44,0,0,0,1.49.24c3.62,0,5.8-2.4,9.06-3.07,4.53-.92,5.67,1.36,9.85,2.95,6.54,2.49,9.48.43,10.36-4a18.65,18.65,0,0,0,.27-3.8c-.12-7.79,7.38-7.13,13.61-8.64a1.28,1.28,0,0,0,1-.79h.39c3.63,0,5.81-2.4,9.07-3.06,4.52-.93,5.68,1.35,9.84,2.94,6.57,2.49,9.48.43,10.36-4a16.74,16.74,0,0,0,.28-3.8c-.09-6.06,4.42-7,9.36-7.84a6.93,6.93,0,0,0,4.09,5.37c.9.34,2,.62,2.4,1.5a3.38,3.38,0,0,1,0,2,10.76,10.76,0,0,0,0,3.92,1.86,1.86,0,0,0,.57,1.19,1.74,1.74,0,0,0,1.18.22c5.18-.15,7.65-2.21,11.19,2.11a3.93,3.93,0,0,0,1.17,1.09,3.62,3.62,0,0,0,1.49.24c3.63,0,5.8-2.4,9.07-3.07,4.52-.94,5.66,1.36,9.82,2.93,6.56,2.51,9.5.43,10.36-4a19.14,19.14,0,0,0,.28-3.78c-.12-7.81,7.37-7.13,13.61-8.64,4.87-1.19-9.14-12.64.5-17.4a8.75,8.75,0,0,0,4.54-3.72A5.64,5.64,0,0,0,351.72,346.14Z" fill="#fff" opacity="0.2" style="isolation:isolate"/>
<path d="M272.15,359.34l9.4-25.44,12.86-15a10,10,0,0,1-2.17-2.58c-.12-.2-.23-.41-.33-.62l-11.86,11.75-1-17.79a11,11,0,0,1-2.5,1.17,8.3,8.3,0,0,1-2.15.38c1.39,9.72,2.58,24-1,30.9,0,0-23.62,47.33-35.45,57a11,11,0,0,0-1.73,1.93,118.76,118.76,0,0,0-11.93-25.28c5-11.23,15.82-36,19.74-49.19.84-2.86,1.6-5.64,2.29-8.28a11.36,11.36,0,0,1-1.17-2.73H245a16.19,16.19,0,0,1-2.4-.28c-4.61-.6,3.46.38-1.22-.24a4.2,4.2,0,0,1-.8-.16c-5.39,16.56-13.81,38.29-24.31,50.59a69.27,69.27,0,0,0-16.77-12.44c-1-6.54-1.07-17.51,3.45-34.05a32,32,0,0,1-4.13-.68,2.25,2.25,0,0,1-.55-.15,102.89,102.89,0,0,0-6,30.81,63.91,63.91,0,0,1-7.32-4.84A81.19,81.19,0,0,1,172,331.22a21.85,21.85,0,0,1-1.6,1.73,10.43,10.43,0,0,1-2.84,4.56c5.43,7.56,11.9,14.8,18.88,18.91,19.41,11.47,31.09,37.63,31.78,44.38.2,1.94-.35,22.16-1.21,50.08-21.14-14.26-73.09-49.39-75.76-51.81l-.26,6.5,75.55,61.67c-2.09,64.88-5.35,155.84-5.89,170.43l30.86,1.5c1.33-20.12,8.64-137.69,1.95-202.45.4-1.93.83-4.16,1.3-6.73,4.25-24.18,28.68-59.7,33.5-65.37,2.7-3.18,8.31-10.22,12.7-15.78a20.73,20.73,0,0,1-3.06-5.32Z" fill="#0071f2" data-primary="true"/>
<path d="M272.15,359.34l9.4-25.44,12.86-15a10,10,0,0,1-2.17-2.58c-.12-.2-.23-.41-.33-.62l-11.86,11.75-1-17.79a11,11,0,0,1-2.5,1.17,8.3,8.3,0,0,1-2.15.38c1.39,9.72,2.58,24-1,30.9,0,0-23.62,47.33-35.45,57a11,11,0,0,0-1.73,1.93,118.76,118.76,0,0,0-11.93-25.28c5-11.23,15.82-36,19.74-49.19.84-2.86,1.6-5.64,2.29-8.28a11.36,11.36,0,0,1-1.17-2.73H245a16.19,16.19,0,0,1-2.4-.28c-4.61-.6,3.46.38-1.22-.24a4.2,4.2,0,0,1-.8-.16c-5.39,16.56-13.81,38.29-24.31,50.59a69.27,69.27,0,0,0-16.77-12.44c-1-6.54-1.07-17.51,3.45-34.05a32,32,0,0,1-4.13-.68,2.25,2.25,0,0,1-.55-.15,102.89,102.89,0,0,0-6,30.81,63.91,63.91,0,0,1-7.32-4.84A81.19,81.19,0,0,1,172,331.22a21.85,21.85,0,0,1-1.6,1.73,10.43,10.43,0,0,1-2.84,4.56c5.43,7.56,11.9,14.8,18.88,18.91,19.41,11.47,31.09,37.63,31.78,44.38.2,1.94-.35,22.16-1.21,50.08-21.14-14.26-73.09-49.39-75.76-51.81l-.26,6.5,75.55,61.67c-2.09,64.88-5.35,155.84-5.89,170.43l30.86,1.5c1.33-20.12,8.64-137.69,1.95-202.45.4-1.93.83-4.16,1.3-6.73,4.25-24.18,28.68-59.7,33.5-65.37,2.7-3.18,8.31-10.22,12.7-15.78a20.73,20.73,0,0,1-3.06-5.32Z" fill="#fff" opacity="0.6" style="isolation:isolate"/>
<path d="M170.28,400.94a10.63,10.63,0,0,0-5.87-1.73c-1.21-1.6,0-3.9,1.26-5.42s2.92-3.26,2.54-5.18c-.57-3-4.68-3.28-7.7-2.87-1-1.83-.88-4.06-1.32-6.11s-1.95-4.27-4-4.11-3.28,2.3-5.18,2.66c-2.26.41-4.09-1.73-5.77-3.21s-4.71-2.65-6-.76c-.77,1.14-.43,2.78-1.22,3.9-1.4,1.93-4.44.53-6.29-1s-4.83-2.93-6.27-1a8.14,8.14,0,0,0-.84,2c-1,2.57-3.94,3.73-6.22,5.3s-4.18,4.82-2.42,6.91c.87,1.05,2.47,1.53,2.85,2.85.5,1.64-1.21,3-2.57,4-2.25,1.72-2.9,7.23-.12,8.87,1.17.69,2.92,1,3.16,2.32s-1,2.05-1.88,2.93a5.69,5.69,0,0,0,.59,8,6.61,6.61,0,0,0,.74.53c.67.36,1.5.68,1.72,1.42a2.73,2.73,0,0,1-.24,1.59,8.1,8.1,0,0,0-.41,3,1.41,1.41,0,0,0,.32,1,1.49,1.49,0,0,0,.9.31c4.11.38,6.19-1,8.53,2.73a3.31,3.31,0,0,0,.82,1,2.91,2.91,0,0,0,1.12.33c2.83.38,4.78-1.32,7.39-1.51,3.63-.29,4.3,1.61,7.41,3.25,4.87,2.59,7.35,1.26,8.46-2.09a12.78,12.78,0,0,0,.59-2.94c.67-6.11,6.47-4.85,11.48-5.44,3.92-.46-5.89-10.77,2.09-13.55a6.92,6.92,0,0,0,3.9-2.45A4.43,4.43,0,0,0,170.28,400.94Z" fill="#0071f2" data-primary="true"/>
<path d="M170.28,400.94a10.63,10.63,0,0,0-5.87-1.73c-1.21-1.6,0-3.9,1.26-5.42s2.92-3.26,2.54-5.18c-.57-3-4.68-3.28-7.7-2.87-1-1.83-.88-4.06-1.32-6.11s-1.95-4.27-4-4.11-3.28,2.3-5.18,2.66c-2.26.41-4.09-1.73-5.77-3.21s-4.71-2.65-6-.76c-.77,1.14-.43,2.78-1.22,3.9-1.4,1.93-4.44.53-6.29-1s-4.83-2.93-6.27-1a8.14,8.14,0,0,0-.84,2c-1,2.57-3.94,3.73-6.22,5.3s-4.18,4.82-2.42,6.91c.87,1.05,2.47,1.53,2.85,2.85.5,1.64-1.21,3-2.57,4-2.25,1.72-2.9,7.23-.12,8.87,1.17.69,2.92,1,3.16,2.32s-1,2.05-1.88,2.93a5.69,5.69,0,0,0,.59,8,6.61,6.61,0,0,0,.74.53c.67.36,1.5.68,1.72,1.42a2.73,2.73,0,0,1-.24,1.59,8.1,8.1,0,0,0-.41,3,1.41,1.41,0,0,0,.32,1,1.49,1.49,0,0,0,.9.31c4.11.38,6.19-1,8.53,2.73a3.31,3.31,0,0,0,.82,1,2.91,2.91,0,0,0,1.12.33c2.83.38,4.78-1.32,7.39-1.51,3.63-.29,4.3,1.61,7.41,3.25,4.87,2.59,7.35,1.26,8.46-2.09a12.78,12.78,0,0,0,.59-2.94c.67-6.11,6.47-4.85,11.48-5.44,3.92-.46-5.89-10.77,2.09-13.55a6.92,6.92,0,0,0,3.9-2.45A4.43,4.43,0,0,0,170.28,400.94Z" fill="#fff" opacity="0.2" style="isolation:isolate"/>
<path d="M108.21,644.42H251.55L243.8,625.7s-2.16-7.22-9.67-7.22-9.36,12.09-9.36,12.09-4.06-9.27-11.33-10-2.75,10.9-2.75,10.9-15.68-9-20.62-4.61a7.59,7.59,0,0,0-1.62,9.68s-14.14-1.53-21.31,3.18c0,0-1.31-6.3-5.72-7.29s-7.89,3.22-7.89,3.22,1.31-9.52-4.82-13.72-6.59,13.72-6.59,13.72-3.94-8.43-9.43-8-2.85,11-2.85,11A44,44,0,0,0,108.21,644.42Z" fill="#0071f2" data-primary="true"/>
<path d="M108.21,644.42H251.55L243.8,625.7s-2.16-7.22-9.67-7.22-9.36,12.09-9.36,12.09-4.06-9.27-11.33-10-2.75,10.9-2.75,10.9-15.68-9-20.62-4.61a7.59,7.59,0,0,0-1.62,9.68s-14.14-1.53-21.31,3.18c0,0-1.31-6.3-5.72-7.29s-7.89,3.22-7.89,3.22,1.31-9.52-4.82-13.72-6.59,13.72-6.59,13.72-3.94-8.43-9.43-8-2.85,11-2.85,11A44,44,0,0,0,108.21,644.42Z" fill="#fff" opacity="0.4" style="isolation:isolate"/>
<path d="M246.84,639.86s-11.5-12.71-9.17-15,7.23,5,7.23,5-8.86-16.3-5.66-18.08,9.07,14,9.07,14-3.11-18.54,0-19.53,4.62,16.79,4.62,16.79,2.13-18.81,6-18.53,0,16.71,0,16.71,8.74-12.5,12.64-12-6.28,13-6.28,13,10.36-7.51,13.33-5.75-9.26,10-9.26,10,10.52-3.77,13.23-1.89-11,5.93-11,5.93,11.19,1.72,10.36,3.28-10.36,1.38-10.36,1.38S267.44,646.63,246.84,639.86Z" fill="#407bff"/>
<path d="M246.84,639.86s-11.5-12.71-9.17-15,7.23,5,7.23,5-8.86-16.3-5.66-18.08,9.07,14,9.07,14-3.11-18.54,0-19.53,4.62,16.79,4.62,16.79,2.13-18.81,6-18.53,0,16.71,0,16.71,8.74-12.5,12.64-12-6.28,13-6.28,13,10.36-7.51,13.33-5.75-9.26,10-9.26,10,10.52-3.77,13.23-1.89-11,5.93-11,5.93,11.19,1.72,10.36,3.28-10.36,1.38-10.36,1.38S267.44,646.63,246.84,639.86Z" fill="#fff" opacity="0.5" style="isolation:isolate"/>
<circle cx="237.25" cy="598.24" r="1.35" fill="#263238"/>
<path d="M252.67,633.8h0a.31.31,0,0,0,.27-.35v0c0-.27-5-27.51-17-39.25a.31.31,0,0,0-.45,0,.33.33,0,0,0,0,.45h0c11.8,11.6,16.77,38.65,16.82,38.92a.32.32,0,0,0,.36.26Z" fill="#263238"/>
<path d="M234.28,594.39a1.59,1.59,0,1,0,1.61-1.57h0A1.59,1.59,0,0,0,234.28,594.39Z" fill="#263238"/>
<path d="M239.27,607.12a1.35,1.35,0,1,0,1.35-1.35h0a1.34,1.34,0,0,0-1.35,1.32Z" fill="#263238"/>
<path d="M245.25,603.2a1.35,1.35,0,1,0,1.35-1.35h0A1.35,1.35,0,0,0,245.25,603.2Z" fill="#263238"/>
<circle cx="242.42" cy="612.01" r="1.35" fill="#263238"/>
<path d="M247.22,610.07a1.35,1.35,0,1,0,1.34-1.34h0A1.34,1.34,0,0,0,247.22,610.07Z" fill="#263238"/>
<circle cx="241.86" cy="595.98" r="1.35" fill="#263238"/>
<path d="M242.17,602.91V596a.31.31,0,0,0-.29-.33h0a.3.3,0,0,0-.32.29s0,0,0,0v6.11l-5.69-1.41a.33.33,0,0,0-.39.24.31.31,0,0,0,.22.37h0Z" fill="#263238"/>
<path d="M245.06,608.64l1.85-5.41a.32.32,0,0,0-.2-.39h0a.35.35,0,0,0-.42.19l-1.64,4.87-3.95-.9a.31.31,0,0,0-.38.23h0a.31.31,0,0,0,.23.38h0Z" fill="#263238"/>
<path d="M247.36,614.36l1.52-4.18a.34.34,0,0,0-.19-.4.31.31,0,0,0-.41.17v0L247,613.51l-4.44-1.73a.35.35,0,0,0-.43.18.32.32,0,0,0,.19.41Z" fill="#263238"/>
<path d="M268.82,640.92a.38.38,0,0,0,.26-.14c6.32-8.72,14.13-18.24,24.18-22.69a.33.33,0,0,0,.07-.46.3.3,0,0,0-.33-.13c-10.14,4.52-18,14.11-24.39,22.9a.35.35,0,0,0,0,.45A.4.4,0,0,0,268.82,640.92Z" fill="#263238"/>
<path d="M294.54,618.35a1.58,1.58,0,0,1-2,.92h0a1.58,1.58,0,1,1,1.12-3h0A1.6,1.6,0,0,1,294.54,618.35Z" fill="#263238"/>
<path d="M293.48,624.68a1.59,1.59,0,0,1-2,.92,1.56,1.56,0,0,1-.94-2v0a1.57,1.57,0,0,1,2-.94h0A1.59,1.59,0,0,1,293.48,624.68Z" fill="#263238"/>
<path d="M285.33,628.48a1.35,1.35,0,1,1-2.53-.93,1.36,1.36,0,0,1,1.73-.8h0A1.34,1.34,0,0,1,285.33,628.48Z" fill="#263238"/>
<path d="M281.1,622.71a1.35,1.35,0,1,1-.8-1.72h0a1.33,1.33,0,0,1,.8,1.7Z" fill="#263238"/>
<path d="M281.93,632.44a1.35,1.35,0,1,1-.79-1.73h0A1.35,1.35,0,0,1,281.93,632.44Z" fill="#263238"/>
<path d="M276.85,628.47a1.35,1.35,0,1,1-.8-1.73h0A1.35,1.35,0,0,1,276.85,628.47Z" fill="#263238"/>
<path d="M288.08,617.6a1.35,1.35,0,1,1-.8-1.73h0A1.34,1.34,0,0,1,288.08,617.6Z" fill="#263238"/>
<path d="M290.75,624.29a.33.33,0,0,0,.25-.4.32.32,0,0,0-.25-.24l-5.82-.68,2.15-5.73a.29.29,0,0,0-.16-.38l0,0a.32.32,0,0,0-.41.17v0l-2.42,6.48,6.62.78Z" fill="#263238"/>
<path d="M284,628.57a.31.31,0,0,0,.31-.28A.3.3,0,0,0,284,628h0l-4-.57.16-5.18a.31.31,0,0,0-.29-.33h0a.35.35,0,0,0-.33.31l-.17,5.7,4.59.64Z" fill="#263238"/>
<path d="M275.21,632.42l5.48-.14A.33.33,0,0,0,281,632a.31.31,0,0,0-.31-.31h0l-4.8.12V628a.31.31,0,0,0-.3-.33h0a.31.31,0,0,0-.31.31Z" fill="#263238"/>
<path d="M294.55,644.42h-72s18.2-5.94,18.66-7.61a5.56,5.56,0,0,1,2.66-4.34c2.21-1.47,5.19-2.36,6.1-4a24.88,24.88,0,0,1,4.37-5c.91-.76,11.71,4.68,11.85,4.8s3.12,6,4.14,7.34,8.1-.29,9.78,1.11,7.35,5,7.35,5S290.27,641.45,294.55,644.42Z" fill="#263238"/>
<path d="M294.55,644.42h-72s18.2-5.94,18.66-7.61a5.56,5.56,0,0,1,2.66-4.34c2.21-1.47,5.19-2.36,6.1-4a24.88,24.88,0,0,1,4.37-5c.91-.76,11.71,4.68,11.85,4.8s3.12,6,4.14,7.34,8.1-.29,9.78,1.11,7.35,5,7.35,5S290.27,641.45,294.55,644.42Z" fill="#fff" opacity="0.1" style="isolation:isolate"/>
<path d="M290.48,627.5s29-69.17,27.63-93.76S294.88,531,285.3,572c0,0,13-86.09-10.93-92.93s-30.74,74.26-30.74,74.26-7.55-69.37-23.94-59.87,0,59.67,0,59.67-16.41-32.32-29-27.53,6.75,54.83,6.75,54.83-5.35-13.16-17.49-7.7,6.59,35.49,6.59,35.49-12.83-12.09-16.68,0,11.87,19.32,11.87,19.32Z" fill="#0071f2" data-primary="true"/>
<path d="M290.48,627.5s29-69.17,27.63-93.76S294.88,531,285.3,572c0,0,13-86.09-10.93-92.93s-30.74,74.26-30.74,74.26-7.55-69.37-23.94-59.87,0,59.67,0,59.67-16.41-32.32-29-27.53,6.75,54.83,6.75,54.83-5.35-13.16-17.49-7.7,6.59,35.49,6.59,35.49-12.83-12.09-16.68,0,11.87,19.32,11.87,19.32Z" opacity="0.2" style="isolation:isolate"/>
<path d="M650.08,343.55s8.64-27.23,28.44-26.49C678.52,317.06,677,348.44,650.08,343.55Z" fill="#0071f2" data-primary="true"/>
<path d="M650.08,343.55s23.44-2.16,33.45,8.26C683.53,351.81,664,371.36,650.08,343.55Z" fill="#0071f2" data-primary="true"/>
<path d="M566.27,488.53s-3.45-38.3-17.85-52.36C548.42,436.17,544.37,477.88,566.27,488.53Z" fill="#0071f2" data-primary="true"/>
<path d="M566.27,488.53s-19.37-19.69-43.17-24.69C523,463.84,534.27,491.64,566.27,488.53Z" fill="#407bff"/>
<polygon points="676.92 532.91 654.57 538.77 635.14 528.72 667.58 513.9 710.39 513.78 669.73 508.77 674.05 483.59 686.04 476.39 673.57 480.38 667.58 462.73 670.74 482.5 666.19 509.05 630.22 523.29 597.58 516.51 655.73 345.64 637.09 291.52 668.35 263.4 668.66 263.13 701.51 260.54 669.18 259.87 668.52 234.44 673.08 213.53 665.16 233.81 665.09 233.98 665.07 234.31 664.41 260.31 634.25 283.21 629.32 268.91 665.19 178.41 684.5 158.82 697.42 154.19 685.26 155.44 685.26 126.79 697.42 105.79 682.1 125.35 681.8 125.73 681.8 126.32 681.8 156.51 666.02 168.77 653.91 140.55 660.29 168.75 620.13 241.13 595.06 194.67 599.33 154.9 608.6 144.37 598.15 151.76 587.69 135.51 582.63 108.64 584.22 134.35 566.27 133.44 584.98 137.68 595.82 154.52 587.67 190.82 552.14 175.68 532.15 157.34 548.71 176.87 537.53 185.09 551.14 179.06 587.01 197.02 587.08 197.21 610.26 258.95 607.08 264.67 580.47 252.63 571.69 235.6 577.03 252.72 565.63 255.46 578.67 255.65 606.75 274.84 627.49 335.66 558.14 482.12 348.38 536.06 192.65 644.42 384.11 644.42 452.54 571.86 575.37 529.3 628.77 529.3 652.39 541.53 649.25 555.9 632.85 565.55 650.29 559.02 654.36 563.84 652.53 557.06 655.87 541.84 676.92 532.91" fill="#263238"/>
<polygon points="654.57 538.77 676.92 532.91 655.87 541.84 652.53 557.06 654.36 563.83 650.29 559.02 632.85 565.54 649.25 555.9 652.39 541.53 628.77 529.29 575.37 529.29 452.54 571.86 384.11 644.42 192.65 644.42 348.38 536.06 558.14 482.12 627.49 335.66 606.73 274.82 578.67 255.65 565.63 255.46 577.03 252.72 571.69 235.6 580.47 252.63 607.08 264.67 610.26 258.95 587.08 197.21 587.01 197.02 551.14 179.04 537.53 185.09 548.71 176.87 532.15 157.34 552.14 175.68 587.67 190.82 595.82 154.52 584.98 137.68 566.27 133.42 584.22 134.33 582.63 108.64 587.69 135.51 598.15 151.74 608.6 144.35 599.33 154.9 595.06 194.67 620.13 241.11 660.29 168.75 653.91 140.55 666.02 168.77 681.8 156.49 681.8 125.73 682.1 125.35 697.42 105.77 685.26 126.79 685.26 155.44 697.42 154.19 684.5 158.8 665.19 178.41 629.32 268.91 634.25 283.21 664.41 260.31 665.07 234.31 665.09 233.98 665.16 233.81 673.08 213.51 668.52 234.44 669.18 259.87 701.51 260.52 668.66 263.13 668.35 263.4 637.09 291.52 655.73 345.64 597.58 516.51 630.22 523.29 666.19 509.05 670.72 482.5 667.58 462.73 673.57 480.38 686.04 476.39 674.05 483.59 669.73 508.77 710.39 513.78 667.58 513.88 635.14 528.72 654.57 538.77" fill="#fafafa" opacity="0.4" style="isolation:isolate"/>
<polygon points="654.57 538.77 676.92 532.91 655.87 541.84 652.53 557.06 654.36 563.83 650.29 559.02 632.85 565.54 649.25 555.9 652.39 541.53 628.77 529.29 575.37 529.29 452.54 571.86 384.11 644.42 281.98 644.42 385.39 556.37 532.15 511.59 393.02 558.33 329.59 621.52 403.4 560.04 566.27 507.51 554.53 506.58 576.6 498.88 610.69 421.32 585.84 505.68 644.57 344.07 630.15 296.2 635.66 326.85 617.25 270.95 662.08 174.73 685.26 155.25 685.26 155.44 697.42 154.19 684.5 158.8 665.19 178.41 629.32 268.91 634.25 283.21 664.41 260.31 665.07 234.31 665.09 233.98 665.16 233.81 673.08 213.51 668.52 234.44 669.18 259.87 701.51 260.52 668.66 263.13 668.35 263.4 637.09 291.52 655.73 345.64 597.58 516.51 630.22 523.29 666.19 509.05 670.72 482.5 667.58 462.73 673.57 480.38 686.04 476.39 674.05 483.59 669.73 508.77 710.39 513.78 667.58 513.88 635.14 528.72 654.57 538.77" opacity="0.2" style="isolation:isolate"/>
<circle cx="686.04" cy="475.29" r="5.51" fill="#0071f2" data-primary="true"/>
<path d="M702.53,261A5.51,5.51,0,1,1,697,255.5h0A5.49,5.49,0,0,1,702.53,261Z" fill="#0071f2" data-primary="true"/>
<path d="M678.58,219.23a5.51,5.51,0,1,1-5.51-5.51h0a5.49,5.49,0,0,1,5.5,5.49Z" fill="#0071f2" data-primary="true"/>
<path d="M571,255.5a5.51,5.51,0,1,1-5.51-5.51h0a5.49,5.49,0,0,1,5.49,5.49Z" fill="#0071f2" data-primary="true"/>
<path d="M576.6,235.46a5.51,5.51,0,1,1-5.51-5.51,5.51,5.51,0,0,1,5.51,5.51Z" fill="#0071f2" data-primary="true"/>
<path d="M543.15,185.74a5.51,5.51,0,1,1-5.51-5.5h0a5.49,5.49,0,0,1,5.49,5.49Z" fill="#0071f2" data-primary="true"/>
<path d="M537.66,155.68a5.51,5.51,0,1,1-5.53-5.49h0A5.51,5.51,0,0,1,537.66,155.68Z" fill="#0071f2" data-primary="true"/>
<circle cx="565.6" cy="134.33" r="5.51" fill="#0071f2" data-primary="true"/>
<circle cx="583.32" cy="111.28" r="5.51" fill="#0071f2" data-primary="true"/>
<path d="M611.17,145.35a5.51,5.51,0,1,1-5.51-5.51,5.51,5.51,0,0,1,5.51,5.51Z" fill="#0071f2" data-primary="true"/>
<path d="M661.08,142.16a5.51,5.51,0,1,1-5.51-5.51,5.51,5.51,0,0,1,5.51,5.51Z" fill="#0071f2" data-primary="true"/>
<path d="M702.53,108.64a5.51,5.51,0,1,1-5.51-5.51h0a5.49,5.49,0,0,1,5.49,5.49Z" fill="#0071f2" data-primary="true"/>
<path d="M702.53,155.68a5.51,5.51,0,1,1-5.53-5.49h0A5.49,5.49,0,0,1,702.53,155.68Z" fill="#0071f2" data-primary="true"/>
<path d="M686.59,126.49a5.51,5.51,0,1,1-5.51-5.51h0a5.49,5.49,0,0,1,5.49,5.5Z" fill="#0071f2" data-primary="true"/>
<path d="M607.86,203.34a5.51,5.51,0,1,1-5.51-5.51,5.51,5.51,0,0,1,5.51,5.51Z" fill="#0071f2" data-primary="true"/>
<path d="M574.15,180.24a5.51,5.51,0,1,1-5.53-5.5h0A5.52,5.52,0,0,1,574.15,180.24Z" fill="#0071f2" data-primary="true"/>
<circle cx="591.35" cy="164.3" r="5.51" fill="#0071f2" data-primary="true"/>
<path d="M596.94,253.29a5.51,5.51,0,1,1-5.51-5.51,5.5,5.5,0,0,1,5.51,5.51Z" fill="#0071f2" data-primary="true"/>
<path d="M658.51,279.48A5.51,5.51,0,1,1,653,274h0A5.52,5.52,0,0,1,658.51,279.48Z" fill="#0071f2" data-primary="true"/>
<path d="M644.57,203.34a5.51,5.51,0,1,1-5.51-5.51,5.51,5.51,0,0,1,5.51,5.51Z" fill="#0071f2" data-primary="true"/>
<path d="M672.31,183.81a5.51,5.51,0,1,1-5.51-5.51,5.51,5.51,0,0,1,5.51,5.51Z" fill="#0071f2" data-primary="true"/>
<path d="M715.89,514a5.51,5.51,0,1,1-5.5-5.51,5.5,5.5,0,0,1,5.5,5.51Z" fill="#0071f2" data-primary="true"/>
<path d="M673.08,462.73a5.51,5.51,0,1,1-5.51-5.51,5.51,5.51,0,0,1,5.51,5.51Z" fill="#0071f2" data-primary="true"/>
<path d="M681,532.91a5.51,5.51,0,1,1-5.58-5.44h.07A5.52,5.52,0,0,1,681,532.91Z" fill="#0071f2" data-primary="true"/>
<circle cx="656.28" cy="563.84" r="5.51" fill="#0071f2" data-primary="true"/>
<circle cx="632.85" cy="565.55" r="5.51" fill="#0071f2" data-primary="true"/>
<path d="M656.28,543.15a5.51,5.51,0,1,1-5.51-5.5h0a5.49,5.49,0,0,1,5.49,5.49Z" fill="#0071f2" data-primary="true"/>
<path d="M678.58,514a5.51,5.51,0,1,1-5.51-5.51h0a5.5,5.5,0,0,1,5.5,5.5Z" fill="#0071f2" data-primary="true"/>
<path d="M669.7,488.36a5.51,5.51,0,1,1-5.53-5.49h0A5.5,5.5,0,0,1,669.7,488.36Z" fill="#0071f2" data-primary="true"/>
<path d="M635.66,519.5a5.51,5.51,0,1,1-5.53-5.5h0A5.51,5.51,0,0,1,635.66,519.5Z" fill="#0071f2" data-primary="true"/>
<path d="M610.76,532.91a5.51,5.51,0,1,1-5.51-5.51,5.51,5.51,0,0,1,5.51,5.51Z" fill="#0071f2" data-primary="true"/>
<path d="M154.27,644.42s-9.56-7.91-9.56-24.31,18.44,10.1,18.44,10.1-14.82-49.2,3.18-63,15.38,57.17,15.38,57.17,21.07-59.57,36.79-52.56-13.35,55.65-13.35,55.65,38-30.83,53-24-24.86,33.47-24.86,33.47,16.13.56,21.19,7.48Z" fill="#0071f2" data-primary="true"/>
<path d="M342.15,644.42s-12.8-8.08-12.54-16,19.91,8,19.91,8-9.69-31.47,4.8-35.63,12.21,27.08,12.21,27.08,14.3-29.36,28.77-24.18S393,635,393,635s18-7.5,24.91-7.48-6.91,12.09-19.16,16.92Z" fill="#0071f2" data-primary="true"/>
<path d="M154.27,644.42s-9.56-7.91-9.56-24.31,18.44,10.1,18.44,10.1-14.82-49.2,3.18-63,15.38,57.17,15.38,57.17,21.07-59.57,36.79-52.56-13.35,55.65-13.35,55.65,38-30.83,53-24-24.86,33.47-24.86,33.47,16.13.56,21.19,7.48Z" fill="#fafafa" opacity="0.2" style="isolation:isolate"/>
<path d="M342.15,644.42s-12.8-8.08-12.54-16,19.91,8,19.91,8-9.69-31.47,4.8-35.63,12.21,27.08,12.21,27.08,14.3-29.36,28.77-24.18S393,635,393,635s18-7.5,24.91-7.48-6.91,12.09-19.16,16.92Z" fill="#fafafa" opacity="0.2" style="isolation:isolate"/>
<path d="M487.66,494,472,524.68s-2-.37-4.42,5.51c0,0-5.51-4-10.84-3.67,0,0-5.7.36-4.23,3.67,0,0,.21,1.51,3.68,0a7.66,7.66,0,0,1,4.86-.42,8.81,8.81,0,0,1,4.13,2.22s-12.28,4.39-10.73,16.65a5.18,5.18,0,0,0,1.12,2.7,1.6,1.6,0,0,0,2.56-.29,6.15,6.15,0,0,0,.32-3.7s-.9-9.3,8.91-13.43c0,0-7.14,5.93-.92,10.87a1.6,1.6,0,0,0,2,.07c.54-.43.88-1.29.12-3a4.83,4.83,0,0,1,.87-5.3,10.68,10.68,0,0,1,3.76-2.34,16.85,16.85,0,0,1,7.64,1.7s1.66-1-.83-2.54c0,0-3.09-1.38-6.55-2.49a9.54,9.54,0,0,0,.94-5.66l17.64-27.36,1.92-6.2-4.16.86Z" fill="#2f2e41" data-secondary="true"/>
<path d="M442.7,500.53,418,517.35s-2.83-1.24-9.16,2.61c0,0-5.21-8.6-14.37-5.55,0,0-2.69.9-2.73,3a1.69,1.69,0,0,0,2.12,1.66,8.68,8.68,0,0,0,2.26-1,4.24,4.24,0,0,1,2.13-.61,13.05,13.05,0,0,1,7.53,2.52s-17.22,2.9-15.6,13.78a1.54,1.54,0,0,0,2.6.89,4.84,4.84,0,0,0,1.07-1.87,12,12,0,0,1,1.74-3.3,16.81,16.81,0,0,1,13-6.56s-5.2,2.71-4,7.35c0,0,2.26,2.94,3.51-1.92,0,0,2.37-5.32,9.73-4.64a8.31,8.31,0,0,1,3.28.68,1.45,1.45,0,0,0,1.27-.1c.7-.41,1.46-1.23,0-2.5a15,15,0,0,0-4.41-1.93l31.4-17.63-.4-2.41Z" fill="#2f2e41" data-secondary="true"/>
<path d="M540,489.42l28.87,21.38s22.28,18.74,24.15,5.83c0,0,13.95,4.17,13.54-1.66,0,0-1.72-4.51-18.27-13.46l-33.37-19.65Z" fill="#2f2e41" data-secondary="true"/>
<path d="M456.44,444.88c-5.62,5-12.77-1.15-12.77-1.15,2.93,11.75-4.73,14.43-4.73,14.43-9.2,3.07-13.94-9.45-13.94-9.45-1.16,8.68-7.26,8.56-7.26,8.56-12.14,0-15.46-23.38-15.46-23.38l.26,11.24c-1,20.7-10.64,17.19-10.64,17.19a12.93,12.93,0,0,1-7.55-4.55c-8.9-9.84-13.35-32.6-14.84-41.81a20.6,20.6,0,0,1-.2-4.9,21.11,21.11,0,0,1,.53-3.34c5.54-22.51,18.06-28.17,18.06-28.17s7.61-44.31,39.45-47.41c0,0,20.13-3.1,27.53,9.46,0,0-2.06,5.16-10.67,7.57,0,0,9.47-.17,14.11.52a59.17,59.17,0,0,1-.86,19.7s-.19,1.22-.49,3.25v.06a.15.15,0,0,0,0,.07c-1.14,7.71-3.7,26.55-2.76,34.4a114.71,114.71,0,0,0,2.93,17.55l1.66,8.41C460.62,442.25,456.44,444.88,456.44,444.88Z" fill="#0071f2" data-primary="true"/>
<path d="M454.88,341.6c-7.4-12.56-27.53-9.46-27.53-9.46-31.84,3.1-39.45,47.41-39.45,47.41s-12.52,5.66-18.06,28.17a21.11,21.11,0,0,0-.53,3.34l-.06.07s-.66-14.92,6.92-33.53c0,0,3.89-44.12,42-53.85,0,0,17.95-5.41,30.07,5.18C448.2,328.93,455.31,333.87,454.88,341.6Z" fill="#2f2e41" data-secondary="true"/>
<path d="M454.88,341.6s-2.86,5.73-11.12,7.58c0,0,9.72,0,14.56.51l16.55-7.1S471.2,337.18,454.88,341.6Z" fill="#2f2e41" data-secondary="true"/>
<path d="M454.88,341.6s-2.86,5.73-11.12,7.58c0,0,9.72,0,14.56.51l16.55-7.1S471.2,337.18,454.88,341.6Z" opacity="0.2"/>
<path d="M502.89,474s-1.56,19.24-35.53,24.26a55.21,55.21,0,0,1-11.2.71,80.87,80.87,0,0,1-18.05-2.52h0a89.22,89.22,0,0,1-31.5-15.29s-14.92-10.54-22.26-23.4a12.93,12.93,0,0,0,7.55,4.55s9.61,3.51,10.64-17.19l-.26-11.24s3.32,23.38,15.46,23.38c0,0,6.1.12,7.26-8.56,0,0,4.74,12.52,13.94,9.45,0,0,7.66-2.68,4.73-14.43,0,0,7.15,6.13,12.77,1.15,0,0,4.18-2.63,2.34-11.75l-1.66-8.41a114.71,114.71,0,0,1-2.93-17.55c-.94-7.85,1.62-26.69,2.76-34.4-.12,1.08-.54,8.68,10.07,14.94Z" fill="#bcbec0"/>
<path d="M467,387.71a46.21,46.21,0,0,0,4,49.49l39.1-4.92S492.79,398.72,467,387.71Z" fill="#0071f2" data-primary="true"/>
<path d="M539.54,504.71a.42.42,0,0,1-.27.12c-4.35.37-17.3-23.15-18.29-25,5,9.32,6.13,14.66,6.36,17.23a1.57,1.57,0,0,1-2.06,1.63c-10-3.38-33.63-33.47-33.63-33.47-24-30-26.36-37.93-26.43-38.16,6.27,9.53,35.28,6.71,35.28,6.71l13.78,5.62c3.6,6.86,11.44,23.77,15.37,32.29h0l2.33,5.09c1.92,4.77,3.39,8.73,4.52,12C540.93,501.72,540,504.23,539.54,504.71Z" fill="#2f2e41" data-secondary="true"/>
<path d="M539.54,504.71a.42.42,0,0,1-.27.12c-4.35.37-17.3-23.15-18.29-25,5,9.32,6.13,14.66,6.36,17.23a1.57,1.57,0,0,1-2.06,1.63c-10-3.38-33.63-33.47-33.63-33.47-24-30-26.36-37.93-26.43-38.16,6.27,9.53,35.28,6.71,35.28,6.71l13.78,5.62c3.6,6.86,11.44,23.77,15.37,32.29h0l2.33,5.09c1.92,4.77,3.39,8.73,4.52,12C540.93,501.72,540,504.23,539.54,504.71Z" opacity="0.4"/>
<path d="M560.28,487.27c-10.41,4.79-23.78,1.54-23.78,1.54h0c-1.13-3.29-2.6-7.25-4.52-12l-2.33-5.09Z" fill="#bcbec0"/>
<path d="M523.4,458.25l49.83,33.09S606.08,510.2,606.51,515c0,0-6.82-8.07-46.23-27.7L529.65,471.7S526,463.78,523.4,458.25Z" fill="#2f2e41" data-secondary="true"/>
<path d="M523.4,458.25l49.83,33.09S606.08,510.2,606.51,515c0,0-6.82-8.07-46.23-27.7L529.65,471.7S526,463.78,523.4,458.25Z" opacity="0.2"/>
<path d="M489.74,493.62s-2.63,6.25,1,6.61c0,0,4.7,1.92,13-20.54l-5.22-6s-14.59,8.91-14.4,17C484.17,490.68,483.74,495.27,489.74,493.62Z" fill="#a7a9ac"/>
<path d="M456.22,499.05c.12,8.18-9.84,1.56-9.84,1.56-.78,3.8-8.08-4-8.27-4.15A80.87,80.87,0,0,0,456.16,499Z" fill="#a7a9ac"/>
<ellipse cx="422.8" cy="343.74" rx="6.56" ry="5.95" fill="#2f2e41" data-secondary="true"/>
<circle cx="419.45" cy="342.6" r="1.13" fill="#fff"/>
<path d="M465.21,427.07s8.67,8.8,41.9,0l7.17,12.34S474.43,446,465.21,427.07Z" fill="#2f2e41" data-secondary="true"/>
<path d="M465.21,427.07s8.67,8.8,41.9,0l7.17,12.34S474.43,446,465.21,427.07Z" opacity="0.2"/>
</svg>