<?xml version="1.0" encoding="UTF-8"?>
<!DOCTYPE svg PUBLIC "-//W3C//DTD SVG 1.1//EN" "http://www.w3.org/Graphics/SVG/1.1/DTD/svg11.dtd">
<!-- Creator: CorelDRAW -->
<svg xmlns="http://www.w3.org/2000/svg" xml:space="preserve" width="83.6771mm" height="75.4671mm" version="1.1" style="shape-rendering:geometricPrecision; text-rendering:geometricPrecision; image-rendering:optimizeQuality; fill-rule:evenodd; clip-rule:evenodd"
viewBox="0 0 3768.83 3399.05"
 xmlns:xlink="http://www.w3.org/1999/xlink"
 xmlns:xodm="http://www.corel.com/coreldraw/odm/2003">
 <defs>
  <style type="text/css">
   <![CDATA[
    .fil0 {fill:black}
    .fil1 {fill:white}
   ]]>
  </style>
 </defs>
 <g id="Camada_x0020_1">
  <metadata id="CorelCorpID_0Corel-Layer"/>
  <g id="_1633595772192">
   <rect class="fil0" x="-0" y="-0" width="3768.83" height="3399.05"/>
   <path class="fil1" d="M708.24 2846.78l144.61 -59.71c51.94,-17.09 106.2,-33.33 159.6,-49.93 108.53,-33.72 168.82,-50.18 276.34,-88.6 27.31,-9.76 20.17,-4.29 20.94,-34.63 31.24,-18.4 66.81,-35.89 100.11,-54.03 33.82,-18.43 64.58,-36.69 102.88,-51.4 25.69,-21.31 34.57,-207.18 35.05,-255.97 0.34,-34.28 -7.32,-22.98 -31.6,-69.97 -58.91,-114.05 -52.64,-204.31 -71.46,-296.17 -3.28,-16.03 -0.35,-7.12 -6.42,-19.77 -38.97,5.83 -86.67,60.51 -128.98,-17.56 -27.77,-51.24 -28.12,-101.73 -47.61,-158.22 -60.51,-175.35 2.19,-261.16 74.44,-216.88 18.81,11.53 8.57,18.75 30.6,23.66 27.78,-4.37 7.36,-76.03 2.73,-102.7 -15.32,-88.16 -48.08,-270.98 -44.53,-346.15 1.51,-32.06 11.76,-82.38 26.01,-103.36 6.43,-9.46 8.35,-8.52 12.72,-16.63 10.47,-19.41 10.39,-32.56 41.35,-59.69 12.64,-11.08 19.72,-18.14 35.91,-27.03 7.18,-3.95 17.86,-7.8 22.41,-10.99 5.68,-3.97 12.12,-12.42 16.81,-16.87 19.41,-18.45 48.98,-39.05 76.93,-53.17 15.1,-7.63 29.91,-10.31 48.8,-14.01 21.04,-4.13 29.01,-13.75 45.59,-21.45 64.8,-30.1 135.93,-46.34 210.17,-48.95 49.28,-1.74 76.46,9.17 121.66,8.45 80.7,-1.28 159.91,2.73 231.4,27.7 74.68,26.09 110.96,57.9 132,127.86 72.97,7.86 110.1,17.38 137.79,76.07 45.79,97.04 19.73,279.06 8.8,387.33 -3.93,38.92 -26.87,165.67 -6.69,192.37 25.27,1.4 13.16,-5.23 29.8,-19.16 15.51,-12.99 73.16,-32.19 96.27,32.13 19.78,55.01 1.5,126.26 -14.65,175.26 -22.69,68.82 -33.76,202.69 -99.62,205.95 -38.35,1.9 -45.37,-25.66 -77.11,-21.73 -16.91,24.18 -43.19,177.73 -55.23,217.19 -10.19,33.41 -20.47,71.35 -34.41,99.63 -26.06,52.85 -25.2,41.62 -20.07,116.22 2.96,42.99 4.73,82.24 10.61,123.48 13.08,91.84 17.96,74.68 47.99,90.62l176.31 95.81 1.19 28.53c21,4.99 52.72,18.04 74.19,26.11 93.17,35.01 273.04,83.74 382.82,120.39l144.59 59.99c24.74,-22.32 94.13,-128.61 114.15,-161.01 35.27,-57.08 67.14,-118.33 95.49,-181.1 56.19,-124.39 106.75,-284.69 123.22,-436.65 19.58,-180.64 16.21,-340.37 -18.72,-514.99 -40.31,-201.51 -135.11,-425.31 -251.14,-583.51 -20.43,-27.85 -37.88,-52.76 -59.21,-79.73 -44.57,-56.36 -88.04,-97.52 -130.99,-145.69l-73.07 -65.34c-77.79,-63.23 -76.31,-62.7 -160.24,-120.79 -367.75,-254.49 -912.86,-329.9 -1340.35,-182.34 -113.31,39.11 -189.63,70.6 -288.5,126.69 -102.27,58.03 -157.31,99.35 -246.77,172.65l-109.26 100.47c-36.49,34.27 -126.54,150.64 -156.87,191.73 -39.92,54.08 -73.11,113.35 -106.36,174.53 -221.3,407.23 -234.98,935.98 -43.4,1360.09 34.61,76.6 98.66,197.28 149.94,264.45 17.1,22.4 41.54,62.76 61.06,80.55z"/>
  </g>
 </g>
</svg>
